<?xml version="1.0" encoding="UTF-8"?>
<svg id="Layer_1" data-name="Layer 1" xmlns="http://www.w3.org/2000/svg" xmlns:xlink="http://www.w3.org/1999/xlink" version="1.1" viewBox="0 0 771 819">
  <defs>
    <style>
      .cls-1 {
        font-size: 14.7px;
      }

      .cls-1, .cls-2, .cls-3, .cls-4, .cls-5 {
        font-family: Helvetica, Helvetica;
      }

      .cls-1, .cls-2, .cls-3, .cls-4, .cls-5, .cls-6 {
        isolation: isolate;
      }

      .cls-1, .cls-2, .cls-7 {
        fill: #000;
      }

      .cls-2, .cls-5 {
        font-size: 10px;
      }

      .cls-8 {
        fill: #cfcfcf;
      }

      .cls-8, .cls-9, .cls-10, .cls-11, .cls-7, .cls-12, .cls-13, .cls-14, .cls-15, .cls-16, .cls-17, .cls-18 {
        stroke-width: 0px;
      }

      .cls-19, .cls-9, .cls-20, .cls-21, .cls-22, .cls-23, .cls-24, .cls-25, .cls-26, .cls-27, .cls-28, .cls-29, .cls-30, .cls-31, .cls-32 {
        fill: none;
      }

      .cls-19, .cls-20, .cls-22, .cls-23, .cls-25, .cls-27, .cls-30 {
        stroke-linejoin: round;
      }

      .cls-19, .cls-21, .cls-24, .cls-26, .cls-29, .cls-31, .cls-32 {
        stroke: #000;
      }

      .cls-33 {
        clip-path: url(#clippath);
      }

      .cls-10 {
        fill: #2b75b5;
      }

      .cls-20 {
        stroke: #00aa09;
      }

      .cls-21 {
        stroke-dasharray: 0 0 10.7 10.7;
      }

      .cls-21, .cls-24, .cls-26, .cls-28, .cls-29, .cls-31, .cls-32 {
        stroke-miterlimit: 10;
      }

      .cls-3 {
        font-size: 9px;
      }

      .cls-3, .cls-4, .cls-5 {
        fill: #262626;
      }

      .cls-22 {
        stroke: #333;
      }

      .cls-22, .cls-27, .cls-28, .cls-29, .cls-30, .cls-31 {
        stroke-width: .5px;
      }

      .cls-22, .cls-30, .cls-31 {
        stroke-linecap: square;
      }

      .cls-23 {
        stroke: #242424;
      }

      .cls-24 {
        stroke-width: 2px;
      }

      .cls-11 {
        fill: #3e8ec0;
      }

      .cls-25 {
        stroke: #ff00de;
        stroke-opacity: .7;
      }

      .cls-34 {
        clip-path: url(#clippath-1);
      }

      .cls-12 {
        fill: #fbc9ad;
      }

      .cls-13 {
        fill: #353535;
      }

      .cls-14 {
        fill: #f9bc9b;
      }

      .cls-27 {
        stroke: #0072bd;
      }

      .cls-15 {
        fill: #fac0a1;
      }

      .cls-28 {
        stroke: blue;
      }

      .cls-35 {
        opacity: .6;
      }

      .cls-4 {
        font-size: 11px;
      }

      .cls-30 {
        stroke: #262626;
      }

      .cls-16 {
        fill: #b4d7e8;
      }

      .cls-17 {
        fill: #fff;
      }

      .cls-32 {
        stroke-dasharray: 0 0 12.9 12.9;
      }

      .cls-18 {
        fill: #f2f5f7;
      }
    </style>
    <clipPath id="clippath">
      <rect class="cls-9" x="161.5" y="267.5" width="247.5" height="255.5"/>
    </clipPath>
    <clipPath id="clippath-1">
      <rect class="cls-9" x="419" y="267.5" width="15" height="255.5"/>
    </clipPath>
  </defs>
  <line class="cls-24" x1="306.7" y1="97" x2="409" y2="199"/>
  <line class="cls-24" x1="231.3" y1="97" x2="161.5" y2="199"/>
  <rect class="cls-17" x="133.5" y="174.7" width="283.5" height="18.8"/>
  <rect class="cls-26" x="53" y="34" width="544.7" height="512.3"/>
  <rect class="cls-17" x="63.6" y="27" width="83.8" height="13.9"/>
  <text class="cls-1" transform="translate(68.4 37.9) scale(1 1)"><tspan x="0" y="0">Subject BA</tspan></text>
  <g>
    <line class="cls-30" x1="100" y1="179.5" x2="575.5" y2="179.5"/>
    <line class="cls-30" x1="100" y1="179.5" x2="100" y2="174.7"/>
    <line class="cls-30" x1="152.8" y1="179.5" x2="152.8" y2="174.7"/>
    <line class="cls-30" x1="205.7" y1="179.5" x2="205.7" y2="174.7"/>
    <line class="cls-30" x1="258.5" y1="179.5" x2="258.5" y2="174.7"/>
    <line class="cls-30" x1="311.3" y1="179.5" x2="311.3" y2="174.7"/>
    <line class="cls-30" x1="364.2" y1="179.5" x2="364.2" y2="174.7"/>
    <line class="cls-30" x1="417" y1="179.5" x2="417" y2="174.7"/>
    <line class="cls-30" x1="469.8" y1="179.5" x2="469.8" y2="174.7"/>
    <line class="cls-30" x1="522.7" y1="179.5" x2="522.7" y2="174.7"/>
    <line class="cls-30" x1="575.5" y1="179.5" x2="575.5" y2="174.7"/>
  </g>
  <text class="cls-5" transform="translate(84.5 193.5)"><tspan x="0" y="0">Jan 01</tspan></text>
  <text class="cls-5" transform="translate(137.3 193.5)"><tspan x="0" y="0">Jan 04</tspan></text>
  <text class="cls-5" transform="translate(190.2 193.5)"><tspan x="0" y="0">Jan 07</tspan></text>
  <text class="cls-5" transform="translate(243 193.5)"><tspan x="0" y="0">Jan 10</tspan></text>
  <text class="cls-5" transform="translate(295.8 193.5)"><tspan x="0" y="0">Jan 13</tspan></text>
  <text class="cls-5" transform="translate(348.7 193.5)"><tspan x="0" y="0">Jan 16</tspan></text>
  <text class="cls-5" transform="translate(401.5 193.5)"><tspan x="0" y="0">Jan 19</tspan></text>
  <text class="cls-5" transform="translate(454.3 193.5)"><tspan x="0" y="0">Jan 22</tspan></text>
  <text class="cls-5" transform="translate(507.2 193.5)"><tspan x="0" y="0">Jan 25</tspan></text>
  <text class="cls-5" transform="translate(560 193.5)"><tspan x="0" y="0">Jan 28</tspan></text>
  <g>
    <line class="cls-30" x1="100" y1="179.5" x2="100" y2="61.5"/>
    <line class="cls-30" x1="100" y1="179.5" x2="104.8" y2="179.5"/>
    <line class="cls-30" x1="100" y1="134.4" x2="104.8" y2="134.4"/>
    <line class="cls-30" x1="100" y1="89.4" x2="104.8" y2="89.4"/>
  </g>
  <text class="cls-5" transform="translate(90 183)"><tspan x="0" y="0">0</tspan></text>
  <text class="cls-5" transform="translate(82 137.9)"><tspan x="0" y="0">0.5</tspan></text>
  <text class="cls-5" transform="translate(90 92.9)"><tspan x="0" y="0">1</tspan></text>
  <text class="cls-4" transform="translate(77.3 170) rotate(-90)"><tspan x="0" y="0">Combined ASM load</tspan></text>
  <path class="cls-20" d="M108.8,89.4h120.4s0,0,0,0h.1c0,.1,0,.1,0,.1v.2c.1,0,.1,0,.1,0v.2c.1,0,.1,0,.1,0v.2c.1,0,.1,0,.1,0v.2c.1,0,.1,0,.1,0v.2c.1,0,.1,0,.1,0v.2c.1,0,.1,0,.1,0v.2c.1,0,.1,0,.1,0v.2c.1,0,.1,0,.1,0v.2c.1,0,.1,0,.1,0v.2c.1,0,.1,0,.1,0v.2c.1,0,.1,0,.1,0v.2c.1,0,.1,0,.1,0v.2c.1,0,.1,0,.1,0v.2c.1,0,.1,0,.1,0v.2c.1,0,.1,0,.1,0v.2c.1,0,.1,0,.1,0v.2c.1,0,.1,0,.1,0v.2c.1,0,.1,0,.1,0v.2c.1,0,.1,0,.1,0v.2c.1,0,.1,0,.1,0v.2c.1,0,.1,0,.1,0v.2c.1,0,.1,0,.1,0v.2c.1,0,.1,0,.1,0v.2c.1,0,.1,0,.1,0v.2c.1,0,.1,0,.1,0v.2c.1,0,.1,0,.1,0v.2c.1,0,.1,0,.1,0v.2c.1,0,.1,0,.1,0v.2c.1,0,.1,0,.1,0v.2c.1,0,.1,0,.1,0v.2c.1,0,.1,0,.1,0v.2c.1,0,.1,0,.1,0v.2c.1,0,.1,0,.1,0v.2c.1,0,.1,0,.1,0v.2c.1,0,.1,0,.1,0v.2c.1,0,.1,0,.1,0v.2c.1,0,.1,0,.1,0h.1c0,.1,0,.2,0,.2v.2c.1,0,.1,0,.1,0h.1c0,.1,0,.2,0,.2v.2c.1,0,.1,0,.1,0h.1c0,.1,0,.2,0,.2h.1c0,.1,0,.2,0,.2h.1c0,.1,0,.1,0,.1h.1c0,.1,0,.1,0,.1h.1c0,.1,0,.2,0,.2h.1c0,.1,0,.1,0,.1h.1c0,.1,0,.1,0,.1h.1c0,.1,0,.1,0,.1h.1c0,.1,0,.1,0,.1h.1c0,.1,0,.1,0,.1h.1c0,.1,0,.1,0,.1h.1c0,.1,0,.1,0,.1h.1c0,.1,0,.1,0,.1h.1c0,.1,0,.1,0,.1h.1c0,.1,0,.1,0,.1h.1c0,.1,0,.1,0,.1h.1c0,.1,0,.1,0,.1h.1c0,.1,0,.1,0,.1h.1c0,.1,0,.1,0,.1h.1c0,.1,0,.1,0,.1h.1c0,.1,0,.1,0,.1h.1c0,.1,0,.1,0,.1h.1c0,.1,0,.1,0,.1h.1c0,.1,0,.1,0,.1h.1c0,.1,0,.1,0,.1h.1c0,.1,0,.1,0,.1h.1c0,.1,0,.1,0,.1h.1c0,.1,0,.1,0,.1v.2c.1,0,.1,0,.1,0v.2c.1,0,.1,0,.1,0v.2c.1,0,.1,0,.1,0v.2c.1,0,.1,0,.1,0v.2c.1,0,.1,0,.1,0v.3c.1,0,.1,0,.1,0v.2c.1,0,.1,0,.1,0v.3c.1,0,.1,0,.1,0v.2c.1,0,.1,0,.1,0v.2c.1,0,.1,0,.1,0v.2c.1,0,.1,0,.1,0v.2c.1,0,.1,0,.1,0v.2c.1,0,.1,0,.1,0v.2c.1,0,.1,0,.1,0v.2c.1,0,.1,0,.1,0v.2c.1,0,.1,0,.1,0v.2c.1,0,.1,0,.1,0v.2c.1,0,.1,0,.1,0v.2c.1,0,.1,0,.1,0v.2c.1,0,.1,0,.1,0v.2c.1,0,.1,0,.1,0v.2c.1,0,.1,0,.1,0v.2c.1,0,.1,0,.1,0v.2c.1,0,.1,0,.1,0v.2c.1,0,.1,0,.1,0v.2c.1,0,.1,0,.1,0v.2c.1,0,.1,0,.1,0v.2c.1,0,.1,0,.1,0v.2c.1,0,.1,0,.1,0v.2c.1,0,.1,0,.1,0v.2c.1,0,.1,0,.1,0v.2c.1,0,.1,0,.1,0v.2c.1,0,.1,0,.1,0v.2c.1,0,.1,0,.1,0v.2c.1,0,.1,0,.1,0v.2c.1,0,.1,0,.1,0v.2c.1,0,.1,0,.1,0v.2c.1,0,.1,0,.1,0v.2c.1,0,.1,0,.1,0v.2c.1,0,.1,0,.1,0v.2c.1,0,.1,0,.1,0v.2c.1,0,.1,0,.1,0v.2c.1,0,.1,0,.1,0v.2c.1,0,.1,0,.1,0v.2c.1,0,.1,0,.1,0v.2c.1,0,.1,0,.1,0v.2c.1,0,.1,0,.1,0v.2c.1,0,.1,0,.1,0v.2c.1,0,.1,0,.1,0v.2c.1,0,.1,0,.1,0v.2c.1,0,.1,0,.1,0v.2c.1,0,.1,0,.1,0v.2c.1,0,.1,0,.1,0v.2c.1,0,.1,0,.1,0h.1c0,.1,0,.2,0,.2v.2c.1,0,.1,0,.1,0h.1c0,.1,0,.2,0,.2v.2c.1,0,.1,0,.1,0h.1c0,.1,0,.1,0,.1h.1c0,.1,0,.2,0,.2h.1c0,.1,0,.1,0,.1h.1c0,.1,0,.1,0,.1h.1c0,.1,0,.2,0,.2h.1c0,.1,0,.1,0,.1h.1c0,.1,0,.1,0,.1h.1c0,.1,0,.1,0,.1h.1c0,.1,0,.1,0,.1h.1c0,.1,0,.1,0,.1h.1c0,.1,0,.1,0,.1h.1c0,.1,0,.1,0,.1h.1c0,.1,0,.1,0,.1h.1c0,.1,0,.1,0,.1h.1c0,.1,0,.1,0,.1h.1c0,.1,0,.1,0,.1h.1c0,.1,0,.1,0,.1h.1c0,.1,0,.1,0,.1h.1c0,.1,0,.1,0,.1h.1c0,.1,0,.1,0,.1h.1c0,.1,0,.1,0,.1h.1c0,.1,0,.1,0,.1h.1c0,.1,0,.1,0,.1h.1c0,.1,0,.1,0,.1h.1c0,.1,0,.1,0,.1h.1c0,.1,0,.1,0,.1h.1c0,.1,0,.1,0,.1h.1c0,.1,0,.1,0,.1h.1c0,.1,0,.1,0,.1h.1c0,.1,0,.1,0,.1h.1c0,.1,0,.1,0,.1h.1c0,.1,0,.1,0,.1h.1c0,.1,0,.1,0,.1h.1c0,.1,0,.1,0,.1h.1c0,.1,0,.1,0,.1h.1c0,.1,0,.1,0,.1h.1c0,.1,0,.1,0,.1h.1c0,0,0,.1,0,.1h.1c0,.1,0,.1,0,.1h.1c0,0,0,.1,0,.1h.1c0,.1,0,.1,0,.1h.1c0,0,0,.1,0,.1h.1c0,0,0,.1,0,.1h.1c0,0,0,0,0,0h.1c0,0,0,.1,0,.1h.1c0,0,0,0,0,0h.1c0,0,0,0,0,0h.1c0,0,0,.1,0,.1h.1c0,0,0,0,0,0h.1c0,0,0,0,0,0h.1c0,0,0,0,0,0h.1c0,0,0,0,0,0h.1c0,0,0,0,0,0h.1c0,0,0,0,0,0h.1c0,0,0,0,0,0h.1c0,0,0,0,0,0h.1c0,0,0,0,0,0h.1c0,0,0,0,0,0h.1c0,0,0,0,0,0h.1c0,0,0,0,0,0h.1c0,0,0,0,0,0h.1c0,0,0,0,0,0h.1c0,0,0,0,0,0h.1c0,0,0,0,0,0h.1c0,0,0,0,0,0h.1c0,0,0,0,0,0h.1c0,0,0,0,0,0h.1c0,0,0,0,0,0h.1c0,0,0,0,0,0h.1c0,0,0,0,0,0h.1c0,0,0,0,0,0h.1c0,0,0,0,0,0h.1c0,0,0,0,0,0h.1c0,0,0,0,0,0h.1c0,0,0,0,0,0h.1c0,0,0,0,0,0h.1c0,0,0,0,0,0h.1c0,0,0,0,0,0h.1c0,0,0,0,0,0h.1c0,0,0,0,0,0h.1c0,0,0,0,0,0h.1c0,0,0,0,0,0h.1c0,0,0,0,0,0h.1c0,0,0,0,0,0h.1c0,0,0,0,0,0h.1c0,0,0,0,0,0h.1c0,0,0,0,0,0h.1c0,0,0,0,0,0h.1c0,0,0,0,0,0h.1c0,0,0,0,0,0h.1c0,0,0,0,0,0h.1c0,0,0,0,0,0h.1c0,0,0,0,0,0h.1c0,0,0,0,0,0h.1c0,0,0,0,0,0h.1c0,0,0,0,0,0h.1c0,0,0,0,0,0h.1c0,0,0,0,0,0h.1c0,0,0,0,0,0h.1c0,0,0,0,0,0h.1c0,0,0,0,0,0h.1c0,0,0,0,0,0h.1c0,0,0,0,0,0h.1c0,0,0,0,0,0h.1c0,0,0,0,0,0h.1c0,0,0,0,0,0h.1c0,0,0,0,0,0h.1c0,0,0,0,0,0h.1c0,0,0,0,0,0h.1c0,0,0,0,0,0h.1c0,0,0,0,0,0h.1c0,0,0,0,0,0h.1c0,0,0,0,0,0h.1c0,0,0,0,0,0h.1c0,0,0,0,0,0h.1c0,0,0,0,0,0h.1c0,0,0,0,0,0h.1c0,0,0,0,0,0h.1c0,0,0,0,0,0h.1c0,0,0,0,0,0h.1c0,0,0,0,0,0h.1c0,0,0,0,0,0h.1s0,0,0,0h.1s0,0,0,0h.1c0,0,0,0,0,0h.1s0,0,0,0h.1c0,0,0,0,0,0h.1s0,0,0,0h.1c0,0,0,0,0,0h.1s0,0,0,0h.1s0,0,0,0h.1s0,0,0,0h.1s0,0,0,0h.1s0,0,0,0h.1s0,0,0,0h.1s0,0,0,0h.1s0,0,0,0h.1s0,0,0,0h.1s0,0,0,0h.1s0,0,0,0h.1s0,0,0,0h.1s0,0,0,0h.1s0,0,0,0h.1s0,0,0,0h.1s0,0,0,0h.1s0,0,0,0h.1s0,0,0,0h.1s0,0,0,0h.1s0,0,0,0h.1s0,0,0,0h.1s0,0,0,0h.1s0,0,0,0h.1s0,0,0,0h.1s0,0,0,0h.1s0,0,0,0h.1s0,0,0,0h.1s0,0,0,0h.1s0,0,0,0h.1s0,0,0,0h.1s0,0,0,0h.1s0,0,0,0h.1s0,0,0,0h.1s0,0,0,0h.1s0,0,0,0h.1s0,0,0,0h.1s0,0,0,0h.1s0,0,0,0h.1s0,0,0,0h.1s0,0,0,0h.1s0,0,0,0h.1s0,0,0,0h.1s0,0,0,0h.1s0,0,0,0h.1s0,0,0,0h.1s0,0,0,0h.1s0,0,0,0h.1s0,0,0,0h.1s0,0,0,0h.1s0,0,0,0h.1s0,0,0,0h.1s0,0,0,0h.1s0,0,0,0h.1s0,0,0,0h.1s0,0,0,0h.1s0,0,0,0h.1s0,0,0,0h.1s0,0,0,0h.1s0,0,0,0h.1s0,0,0,0h.1s0,0,0,0h.1s0,0,0,0h.1s0,0,0,0h.1s0,0,0,0h.1s0,0,0,0h.1s0,0,0,0h.1s0,0,0,0h.1s0,0,0,0h.1s0,0,0,0h.1s0,0,0,0h.1s0,0,0,0h.1s0,0,0,0h.1s0,0,0,0h.1s0,0,0,0h.1s0,0,0,0h.1s0,0,0,0h.1s0,0,0,0h.1s0,0,0,0h.1s0,0,0,0h.1s0,0,0,0h.1s0,0,0,0h.1s0,0,0,0h.1s0,0,0,0h.1s0,0,0,0h.1s0,0,0,0h.1s0,0,0,0h.1s0,0,0,0h.1s0,0,0,0h.1s0,0,0,0h.1s0,0,0,0h.1s0,0,0,0h.1s0,0,0,0h.1s0,0,0,0h.1s0,0,0,0h.1s0,0,0,0h.1c0,0,0,0,0,0h.1c0,0,0,0,0,0h.1c0,0,0,0,0,0h.1c0,0,0,0,0,0h.1c0,0,0,.1,0,.1h.1c0,0,0,0,0,0h.1c0,0,0,.1,0,.1h.1c0,0,0,0,0,0h.1c0,0,0,.1,0,.1h.1c0,0,0,0,0,0h.1c0,0,0,0,0,0h.1c0,0,0,.1,0,.1h.1c0,0,0,0,0,0h.1c0,0,0,0,0,0h.1c0,0,0,0,0,0h.1c0,0,0,0,0,0h.1c0,0,0,0,0,0h.1c0,0,0,0,0,0h.1c0,0,0,0,0,0h.1c0,0,0,0,0,0h.1c0,0,0,0,0,0h.1c0,0,0,0,0,0h.1c0,0,0,0,0,0h.1c0,0,0,0,0,0h.1c0,0,0,0,0,0h.1c0,0,0,0,0,0h.1c0,0,0,0,0,0h.1c0,0,0,0,0,0h.1c0,0,0,0,0,0h.1c0,0,0,0,0,0h.1c0,0,0,0,0,0h.1c0,0,0,0,0,0h.1c0,0,0,0,0,0h.1c0,0,0,0,0,0h.1c0,0,0,0,0,0h.1c0,0,0,0,0,0h.1c0,0,0,0,0,0h.1c0,0,0,0,0,0h.1c0,0,0,0,0,0h.1c0,0,0,0,0,0h.1c0,0,0,0,0,0h.1c0,0,0,0,0,0h.1c0,0,0,0,0,0h.1c0,0,0,0,0,0h.1c0,0,0,0,0,0h.1c0,0,0,0,0,0h.1c0,0,0,0,0,0h.1c0,0,0,0,0,0h.1c0,0,0,0,0,0h.1c0,0,0,0,0,0h.1c0,0,0,0,0,0h.1c0,0,0,0,0,0h.1c0,0,0,0,0,0h.1c0,0,0,0,0,0h.1c0,0,0,0,0,0h.1c0,0,0,0,0,0h.1c0,0,0,0,0,0h.1c0,0,0,0,0,0h.1c0,0,0,0,0,0h.1c0,0,0,0,0,0h.1c0,0,0,0,0,0h.1c0,0,0,0,0,0h.1c0,0,0,0,0,0h.1c0,0,0,0,0,0h.1c0,0,0,0,0,0h.1c0,0,0,0,0,0h.1c0,0,0,0,0,0h.1c0,0,0,0,0,0h.1s0,0,0,0h.1c0,0,0,0,0,0h.1c0,0,0,0,0,0h.1c0,.1,0,.1,0,.1h.1c0,.1,0,.1,0,.1h.1c0,.1,0,.1,0,.1v.2c.1,0,.1,0,.1,0h.1c0,.1,0,.2,0,.2v.2c.1,0,.1,0,.1,0h.1c0,.1,0,.2,0,.2v.2c.1,0,.1,0,.1,0h.1c0,.1,0,.2,0,.2h.1c0,.1,0,.2,0,.2h.1c0,.1,0,.2,0,.2h.1c0,.1,0,.1,0,.1h.1c0,.1,0,.2,0,.2h.1c0,.1,0,.1,0,.1h.1c0,.1,0,.2,0,.2h.1c0,.1,0,.1,0,.1h.1c0,.1,0,.1,0,.1h.1c0,.1,0,.1,0,.1h.1c0,.1,0,.1,0,.1h.1c0,.1,0,.1,0,.1h.1c0,.1,0,.1,0,.1h.1c0,.1,0,.1,0,.1h.1c0,.1,0,.1,0,.1h.1c0,.1,0,.1,0,.1h.1c0,.1,0,.1,0,.1h.1c0,.1,0,.1,0,.1h.1c0,.1,0,.1,0,.1h.1c0,.1,0,.1,0,.1h.1c0,.1,0,.1,0,.1h.1c0,.1,0,.1,0,.1h.1c0,.1,0,.1,0,.1h.1c0,.1,0,.1,0,.1h.1c0,.1,0,.1,0,.1h.1c0,.1,0,.1,0,.1h.1c0,.1,0,.1,0,.1h.1c0,.1,0,.1,0,.1h.1c0,.1,0,.1,0,.1h.1c0,.1,0,.1,0,.1h.1c0,.1,0,.1,0,.1h.1c0,.1,0,.1,0,.1h.1c0,.1,0,.1,0,.1h.1c0,.1,0,.1,0,.1h.1c0,.1,0,.1,0,.1h.1c0,.1,0,.1,0,.1h.1c0,.1,0,.1,0,.1h.1c0,.1,0,.1,0,.1h.1c0,.1,0,.1,0,.1h.1c0,0,0,.1,0,.1h.1c0,.1,0,.1,0,.1h.1c0,0,0,.1,0,.1h.1c0,0,0,.1,0,.1h.1c0,.1,0,.1,0,.1h.1c0,0,0,0,0,0h.1c0,0,0,.1,0,.1h.1c0,0,0,0,0,0h.1c0,0,0,.1,0,.1h.1c0,0,0,0,0,0h.1c0,0,0,0,0,0h.1c0,0,0,0,0,0h.1c0,0,0,0,0,0h.1c0,0,0,0,0,0h.1c0,0,0,0,0,0h.1c0,0,0,0,0,0h.1c0,0,0,0,0,0h.1c0,0,0,0,0,0h.1c0,0,0,0,0,0h.1c0,0,0,0,0,0h.1c0,0,0,0,0,0h.1c0,0,0,0,0,0h.1c0,0,0,0,0,0h0s.1,0,.1,0h0s.1,0,.1,0h0s.1-.1.1-.1h0s.1-.1.1-.1h0s.1-.1.1-.1h0s.1-.1.1-.1h0s.1-.1.1-.1h0s.1-.1.1-.1h0s.1-.1.1-.1h0s.1-.1.1-.1h0s.1-.1.1-.1h0s.1-.1.1-.1h0s.1-.1.1-.1h0s.1-.1.1-.1h0s.1-.1.1-.1h0s.1-.1.1-.1h0s.1-.1.1-.1h0s.1-.1.1-.1h0s.1-.1.1-.1h0s.1-.1.1-.1h0s.1-.1.1-.1h0s.1-.1.1-.1h0s.1-.1.1-.1h0s.1-.1.1-.1h0s.1-.1.1-.1h0s.1-.1.1-.1h0s.1-.1.1-.1h0s.1-.1.1-.1h0s.1-.1.1-.1h0s.1,0,.1,0h0s.1-.1.1-.1h0s.1,0,.1,0h0s.1,0,.1,0h0s.1,0,.1,0h0s.1,0,.1,0h0s.1,0,.1,0h0s.1,0,.1,0h0s.1,0,.1,0h0s.1,0,.1,0h0s.1,0,.1,0h0s.1,0,.1,0h0s.1,0,.1,0h0s.1,0,.1,0h0s.1,0,.1,0h0s.1,0,.1,0h0s.1,0,.1,0h0s.1,0,.1,0h0s.1,0,.1,0h0s.1,0,.1,0h0s.1,0,.1,0h0s.1,0,.1,0h0s.1,0,.1,0h0s.1,0,.1,0h0s.1,0,.1,0h0s.1,0,.1,0h0s.1,0,.1,0h0s.1,0,.1,0h0s.1,0,.1,0h0s.1,0,.1,0h0s.1,0,.1,0h0s.1,0,.1,0h0s.1,0,.1,0h0s.1,0,.1,0h0s.1,0,.1,0h0s.1,0,.1,0h0s.1,0,.1,0h0s.1,0,.1,0h0s.1,0,.1,0h0s.1,0,.1,0h0s.1,0,.1,0h0s.1-.2.1-.2h0s.1-.3.1-.3h0s.1-.3.1-.3h0s.1-.4.1-.4h0s.1-.4.1-.4h0s.1-.4.1-.4h0s.1-.4.1-.4h0s.1-.4.1-.4h0s.1-.4.1-.4h0s.1-.4.1-.4h0s.1-.4.1-.4h0s.1-.3.1-.3h0s.1-.4.1-.4h0s.1-.3.1-.3h0s.1-.3.1-.3h0s.1-.3.1-.3h0s.1-.3.1-.3h0s.1-.3.1-.3h0s.1-.3.1-.3h0s.1-.3.1-.3h0s.1-.3.1-.3h0s.1-.3.1-.3h0s.1-.3.1-.3h0s.1-.3.1-.3h0s.1-.3.1-.3h0s.1-.3.1-.3h0s.1-.3.1-.3h0s.1-.3.1-.3h0s.1-.3.1-.3h0s.1-.3.1-.3h0s.1-.3.1-.3h0s.1-.3.1-.3h0s.1-.3.1-.3h0s.1-.3.1-.3h0s.1-.3.1-.3h0s.1-.3.1-.3h0s.1-.3.1-.3h0s.1-.3.1-.3h0s.1-.3.1-.3h0s.1-.3.1-.3h0s.1-.3.1-.3h0s.1-.3.1-.3h0s.1-.4.1-.4h0s.1-.4.1-.4h0s.1-.5.1-.5h0s.1-.5.1-.5h0s.1-.5.1-.5h0s.1-.5.1-.5h0s.1-.5.1-.5h0s.1-.5.1-.5h0s.1-.5.1-.5h0s.1-.5.1-.5h0s.1-.5.1-.5h0s.1-.5.1-.5h0s.1-.5.1-.5h0s.1-.5.1-.5h0s.1-.5.1-.5h0s.1-.5.1-.5h0s.1-.5.1-.5h0s.1-.6.1-.6h0s.1-.7.1-.7h0s.1-.7.1-.7h0s.1-.7.1-.7h0s.1-.7.1-.7h0s.1-.7.1-.7h0s.1-.7.1-.7h0s.1-.7.1-.7h0s.1-.7.1-.7h0s.1-.7.1-.7h0s.1-.7.1-.7h0s.1-.7.1-.7h0s.1-.7.1-.7h0s.1-.6.1-.6h0s.1-.6.1-.6h0s.1-.7.1-.7h0s.1-.6.1-.6h0s.1-.6.1-.6h0s.1-.6.1-.6h0s.1-.6.1-.6h0s.1-.6.1-.6h0s.1-.6.1-.6h0s.1-.6.1-.6h0s.1-.6.1-.6h0s.1-.6.1-.6h0s.1-.6.1-.6h0s.1-.6.1-.6h0s.1-.6.1-.6h0s.1-.6.1-.6h0s.1-.5.1-.5h0s.1-.6.1-.6h0s.1-.5.1-.5h0s.1-.5.1-.5h0s.1-.5.1-.5h0s.1-.5.1-.5h0s.1-.5.1-.5h0s.1-.5.1-.5h0s.1-.5.1-.5h0s.1-.5.1-.5h0s.1-.5.1-.5h0s.1-.5.1-.5h0s.1-.5.1-.5h0s.1-.5.1-.5h0s.1-.5.1-.5h0s.1-.5.1-.5h0s.1-.5.1-.5h0s.1-.5.1-.5h0s.1-.4.1-.4h0s.1-.4.1-.4h0s.1-.5.1-.5h0s.1-.4.1-.4h0s.1-.5.1-.5h0s.1-.4.1-.4h0s.1-.4.1-.4h0s.1-.4.1-.4h0s.1-.4.1-.4h0s.1-.4.1-.4h0s.1-.4.1-.4h0s.1-.4.1-.4h0s.1-.4.1-.4h0s.1-.4.1-.4h0s.1-.4.1-.4h0s.1-.4.1-.4h0s.1-.4.1-.4h0s.1-.4.1-.4h0s.1-.4.1-.4h0s.1-.4.1-.4h0s.1-.4.1-.4h0s.1-.4.1-.4h0s.1-.4.1-.4h0s.1-.4.1-.4h0s.1-.4.1-.4h0s.1-.4.1-.4h0s.1-.4.1-.4h0s.1-.3.1-.3h0s.1-.3.1-.3h0s.1-.4.1-.4h0s.1-.3.1-.3h0s.1-.3.1-.3h0s.1-.3.1-.3h0s.1-.3.1-.3h0s.1-.3.1-.3h0s.1-.3.1-.3h0s.1-.3.1-.3h0s.1-.3.1-.3h0s.1-.3.1-.3h0s.1-.3.1-.3h0s.1-.3.1-.3h0s.1-.3.1-.3h0s.1-.3.1-.3h0s.1-.3.1-.3h0s.1-.3.1-.3h0s.1-.3.1-.3h0s.1-.3.1-.3h0s.1-.3.1-.3h0s.1-.3.1-.3h0s.1-.3.1-.3h0s.1-.3.1-.3h0s.1-.3.1-.3h0s.1-.3.1-.3h0s.1-.3.1-.3h0s.1-.3.1-.3h0s.1-.3.1-.3h0s.1-.3.1-.3h0s.1-.3.1-.3h0s.1-.3.1-.3h0s.1-.3.1-.3h0s.1-.3.1-.3h0s.1-.3.1-.3h0s.1-.3.1-.3h0s.1-.3.1-.3h0s.1-.2.1-.2h0s.1-.3.1-.3h0s.1-.2.1-.2h0s.1-.3.1-.3h0s.1-.2.1-.2h0s.1-.3.1-.3h0s.1-.2.1-.2h0s.1-.2.1-.2h0s.1-.2.1-.2h0s.1-.2.1-.2h0s.1-.2.1-.2h0s.1-.2.1-.2h0s.1-.2.1-.2h0s.1,0,.1,0h0s0,0,0,0h0s0,0,0,0h.1s0,0,0,0h.1s0,0,0,0h.1s0,0,0,0h.1c0,0,0,0,0,0h.1c0,0,0,0,0,0h.1c0,0,0,0,0,0h.1c0,0,0,0,0,0h.1c0,0,0,0,0,0h.1c0,0,0,0,0,0h.1c0,0,0,0,0,0h.1c0,0,0,0,0,0h.1c0,0,0,0,0,0h.1s0,0,0,0h.1s0,0,0,0h.1c0,0,0,0,0,0v.2c.1,0,.1,0,.1,0v.2c.1,0,.1,0,.1,0v.3c.1,0,.1,0,.1,0v.3c.1,0,.1,0,.1,0v.3c.1,0,.1,0,.1,0v.3c.1,0,.1,0,.1,0v.3c.1,0,.1,0,.1,0v.3c.1,0,.1,0,.1,0v.3c.1,0,.1,0,.1,0v.3c.1,0,.1,0,.1,0v.3c.1,0,.1,0,.1,0v.3c.1,0,.1,0,.1,0v.3c.1,0,.1,0,.1,0v.3c.1,0,.1,0,.1,0v.3c.1,0,.1,0,.1,0v.3c.1,0,.1,0,.1,0v.3c.1,0,.1,0,.1,0v.3c.1,0,.1,0,.1,0v.3c.1,0,.1,0,.1,0v.2c.1,0,.1,0,.1,0v.2c.1,0,.1,0,.1,0v.3c.1,0,.1,0,.1,0v.2c.1,0,.1,0,.1,0v.2c.1,0,.1,0,.1,0v.2c.1,0,.1,0,.1,0v.2c.1,0,.1,0,.1,0v.2c.1,0,.1,0,.1,0v.2c.1,0,.1,0,.1,0v.2c.1,0,.1,0,.1,0v.2c.1,0,.1,0,.1,0v.2c.1,0,.1,0,.1,0v.2c.1,0,.1,0,.1,0v.2c.1,0,.1,0,.1,0v.2c.1,0,.1,0,.1,0v.2c.1,0,.1,0,.1,0v.2c.1,0,.1,0,.1,0v.2c.1,0,.1,0,.1,0v.2c.1,0,.1,0,.1,0v.2c.1,0,.1,0,.1,0v.2c.1,0,.1,0,.1,0v.2c.1,0,.1,0,.1,0v.2c.1,0,.1,0,.1,0v.2c.1,0,.1,0,.1,0v.2c.1,0,.1,0,.1,0v.2c.1,0,.1,0,.1,0v.2c.1,0,.1,0,.1,0v.2c.1,0,.1,0,.1,0v.2c.1,0,.1,0,.1,0v.2c.1,0,.1,0,.1,0v.2c.1,0,.1,0,.1,0v.2c.1,0,.1,0,.1,0v.2c.1,0,.1,0,.1,0v.2c.1,0,.1,0,.1,0v.2c.1,0,.1,0,.1,0v.2c.1,0,.1,0,.1,0v.2c.1,0,.1,0,.1,0h.1c0,.1,0,.2,0,.2v.2c.1,0,.1,0,.1,0h.1c0,.1,0,.2,0,.2v.2c.1,0,.1,0,.1,0h.1c0,.1,0,.1,0,.1h.1c0,.1,0,.2,0,.2h.1c0,.1,0,.1,0,.1h.1c0,.1,0,.1,0,.1h.1c0,.1,0,.1,0,.1h.1c0,.1,0,.1,0,.1h.1c0,.1,0,.1,0,.1h.1c0,.1,0,.1,0,.1h.1c0,.1,0,.1,0,.1h.1c0,.1,0,.1,0,.1h.1c0,.1,0,.1,0,.1h.1c0,.1,0,.1,0,.1h.1c0,.1,0,.1,0,.1h.1c0,.1,0,.1,0,.1h.1c0,.1,0,.1,0,.1h.1c0,.1,0,.1,0,.1h.1c0,.1,0,.1,0,.1h.1c0,.1,0,.1,0,.1h.1c0,.1,0,.1,0,.1h.1c0,.1,0,.1,0,.1h.1c0,.1,0,.1,0,.1h.1c0,.1,0,.1,0,.1h.1c0,.1,0,.1,0,.1h.1c0,.1,0,.1,0,.1h.1c0,.1,0,.1,0,.1h.1c0,.1,0,.1,0,.1h.1c0,.1,0,.1,0,.1h.1c0,0,0,.1,0,.1h.1c0,0,0,.1,0,.1h.1c0,.1,0,.1,0,.1h.1c0,0,0,.1,0,.1h.1c0,0,0,.1,0,.1h.1c0,0,0,0,0,0h.1c0,0,0,.1,0,.1h.1c0,0,0,0,0,0h.1c0,0,0,0,0,0h.1c0,0,0,0,0,0h.1c0,0,0,0,0,0h.1c0,0,0,0,0,0h.1c0,0,0,0,0,0h.1c0,0,0,0,0,0h.1c0,0,0,0,0,0h.1c0,0,0,0,0,0h.1c0,0,0,0,0,0h.1c0,0,0,0,0,0h.1c0,0,0,0,0,0h.1c0,0,0,0,0,0h.1c0,0,0,0,0,0h.1c0,0,0,0,0,0h.1c0,0,0,0,0,0h.1c0,0,0,0,0,0h.1c0,0,0,0,0,0h.1c0,0,0,0,0,0h.1c0,0,0,0,0,0h.1c0,0,0,0,0,0h.1c0,0,0,0,0,0h.1c0,0,0,0,0,0h.1c0,0,0,0,0,0h.1c0,0,0,0,0,0h.1c0,0,0,0,0,0h.1c0,0,0,0,0,0h.1c0,0,0,0,0,0h.1c0,0,0,0,0,0h.1c0,0,0,0,0,0h.1c0,0,0,0,0,0h.1c0,0,0,0,0,0h.1c0,0,0,0,0,0h.1c0,0,0,0,0,0h.1c0,0,0,0,0,0h.1c0,0,0,0,0,0h.1c0,0,0,0,0,0h.1c0,0,0,0,0,0h.1c0,0,0,0,0,0h.1c0,0,0,0,0,0h.1c0,0,0,0,0,0h.1c0,0,0,0,0,0h.1c0,0,0,0,0,0h.1c0,0,0,0,0,0h.1c0,0,0,0,0,0h.1c0,0,0,0,0,0h.1c0,0,0,0,0,0h.1c0,0,0,0,0,0h.1c0,0,0,0,0,0h.1c0,0,0,0,0,0h.1s0,0,0,0h.1c0,0,0,0,0,0h.1s0,0,0,0h.1s0,0,0,0h.1s0,0,0,0h.1s0,0,0,0h.1s0,0,0,0h.1s0,0,0,0h.1s0,0,0,0h.1s0,0,0,0h.1s0,0,0,0h.1s0,0,0,0h.1s0,0,0,0h.1s0,0,0,0h.1s0,0,0,0h.1s0,0,0,0h.1s0,0,0,0h.1s0,0,0,0h.1s0,0,0,0h.1s0,0,0,0h.1s0,0,0,0h.1s0,0,0,0h.1s0,0,0,0h.1s0,0,0,0h.1s0,0,0,0h.1s0,0,0,0h.1s0,0,0,0h.1s0,0,0,0h.1s0,0,0,0h.1s0,0,0,0h.1s0,0,0,0h.1s0,0,0,0h.1s0,0,0,0h.1s0,0,0,0h.1s0,0,0,0h.1s0,0,0,0h.1s0,0,0,0h.1s0,0,0,0h.1s0,0,0,0h.1s0,0,0,0h.1s0,0,0,0h.1s0,0,0,0h.1s0,0,0,0h.1s0,0,0,0h.1s0,0,0,0h.1s0,0,0,0h.1s0,0,0,0h.1s0,0,0,0h.1s0,0,0,0h.1s0,0,0,0h.1s0,0,0,0h.1s0,0,0,0h.1s0,0,0,0h.1s0,0,0,0h.1s0,0,0,0h.1s0,0,0,0h.1s0,0,0,0h.1s0,0,0,0h.1s0,0,0,0h.1s0,0,0,0h.1s0,0,0,0h.1s0,0,0,0h.1s0,0,0,0h.1s0,0,0,0h.1s0,0,0,0h.1s0,0,0,0h.1s0,0,0,0h.1s0,0,0,0h.1s0,0,0,0h.1s0,0,0,0h.1s0,0,0,0h.1s0,0,0,0h.1s0,0,0,0h.1s0,0,0,0h.1s0,0,0,0h.1s0,0,0,0h.1s0,0,0,0h.1s0,0,0,0h.1s0,0,0,0h.1s0,0,0,0h.1s0,0,0,0h.1s0,0,0,0h.1s0,0,0,0h.1s0,0,0,0h.1s0,0,0,0h.1s0,0,0,0h.1s0,0,0,0h.1s0,0,0,0h.1s0,0,0,0h.1s0,0,0,0h.1s0,0,0,0h.1s0,0,0,0h.1s0,0,0,0h.1s0,0,0,0h.1s0,0,0,0h.1s0,0,0,0h.1s0,0,0,0h.1s0,0,0,0h.1s0,0,0,0h.1s0,0,0,0h.1s0,0,0,0h.1s0,0,0,0h.1s0,0,0,0h.1s0,0,0,0h.1s0,0,0,0h.1s0,0,0,0h.1s0,0,0,0h.1s0,0,0,0h.1s0,0,0,0h.1s0,0,0,0h.1s0,0,0,0h.1s0,0,0,0h.1s0,0,0,0h.1s0,0,0,0h.1s0,0,0,0h.1s0,0,0,0h.1s0,0,0,0h.1s0,0,0,0h.1s0,0,0,0h.1s0,0,0,0h.1s0,0,0,0h.1s0,0,0,0h.1s0,0,0,0h.1s0,0,0,0h.1s0,0,0,0h.1s0,0,0,0h.1s0,0,0,0h.1s0,0,0,0h.1s0,0,0,0h.1s0,0,0,0h.1s0,0,0,0h.1s0,0,0,0h.1s0,0,0,0h.1s0,0,0,0h.1s0,0,0,0h.1s0,0,0,0h.1s0,0,0,0h.1s0,0,0,0h.1s0,0,0,0h.1s0,0,0,0h.1s0,0,0,0h.1s0,0,0,0h.1s0,0,0,0h.1s0,0,0,0h.1s0,0,0,0h.1s0,0,0,0h.1s0,0,0,0h.1s0,0,0,0h.1s0,0,0,0h.1s0,0,0,0h.1s0,0,0,0h.1s0,0,0,0h.1s0,0,0,0h.1s0,0,0,0h.1s0,0,0,0h.1s0,0,0,0h.1s0,0,0,0h.1s0,0,0,0h.1s0,0,0,0h.1s0,0,0,0h.1s0,0,0,0h.1s0,0,0,0h.1s0,0,0,0h.1s0,0,0,0h.1s0,0,0,0h.1s0,0,0,0h.1s0,0,0,0h.1s0,0,0,0h.1s0,0,0,0h.1s0,0,0,0h.1s0,0,0,0h.1s0,0,0,0h.1s0,0,0,0h.1s0,0,0,0h.1s0,0,0,0h.1s0,0,0,0h.1s0,0,0,0h.1s0,0,0,0h.1s0,0,0,0h.1s0,0,0,0h.1s0,0,0,0h.1s0,0,0,0h.1s0,0,0,0h.1s0,0,0,0h.1s0,0,0,0h.1s0,0,0,0h.1s0,0,0,0h.1s0,0,0,0h.1s0,0,0,0h.1s0,0,0,0h.1s0,0,0,0h.1s0,0,0,0h.1s0,0,0,0h.1s0,0,0,0h.1s0,0,0,0h.1s0,0,0,0h.1s0,0,0,0h.1s0,0,0,0h.1s0,0,0,0h.1s0,0,0,0h.1s0,0,0,0h.1s0,0,0,0h.1s0,0,0,0h.1s0,0,0,0h.1s0,0,0,0h.1s0,0,0,0h.1s0,0,0,0h.1s0,0,0,0h.1s0,0,0,0h.1s0,0,0,0h.1s0,0,0,0h.1s0,0,0,0h.1s0,0,0,0h.1s0,0,0,0h.1s0,0,0,0h.1s0,0,0,0h.1s0,0,0,0h.1s0,0,0,0h.1s0,0,0,0h.1s0,0,0,0h.1s0,0,0,0h.1s0,0,0,0h.1s0,0,0,0h.1s0,0,0,0h.1s0,0,0,0h.1s0,0,0,0h.1s0,0,0,0h.1s0,0,0,0h.1s0,0,0,0h.1s0,0,0,0h.1s0,0,0,0h.1s0,0,0,0h.1s0,0,0,0h.1s0,0,0,0h.1s0,0,0,0h.1s0,0,0,0h.1s0,0,0,0h.1s0,0,0,0h.1s0,0,0,0h.1s0,0,0,0h.1s0,0,0,0h.1s0,0,0,0h.1s0,0,0,0h.1s0,0,0,0h.1s0,0,0,0h.1s0,0,0,0h.1s0,0,0,0h.1s0,0,0,0h.1s0,0,0,0h.1s0,0,0,0h.1s0,0,0,0h.1s0,0,0,0h.1s0,0,0,0h.1s0,0,0,0h.1s0,0,0,0h.1s0,0,0,0h.1s0,0,0,0h.1s0,0,0,0h.1s0,0,0,0h.1s0,0,0,0h.1s0,0,0,0h.1s0,0,0,0h.1s0,0,0,0h.1s0,0,0,0h.1s0,0,0,0h.1s0,0,0,0h.1s0,0,0,0h.1s0,0,0,0h.1s0,0,0,0h.1s0,0,0,0h.1s0,0,0,0h.1s0,0,0,0h.1s0,0,0,0h.1s0,0,0,0h.1s0,0,0,0h.1s0,0,0,0h.1s0,0,0,0h.1s0,0,0,0h.1s0,0,0,0h.1s0,0,0,0h.1s0,0,0,0h.1s0,0,0,0h.1s0,0,0,0h.1s0,0,0,0h.1s0,0,0,0h.1s0,0,0,0h.1s0,0,0,0h.1s0,0,0,0h.1s0,0,0,0h.1s0,0,0,0h.1s0,0,0,0h.1s0,0,0,0h.1s0,0,0,0h.1s0,0,0,0h.1s0,0,0,0h.1s0,0,0,0h.1s0,0,0,0h.1s0,0,0,0h.1s0,0,0,0h.1s0,0,0,0h.1s0,0,0,0h.1s0,0,0,0h.1s0,0,0,0h.1s0,0,0,0h.1s0,0,0,0h.1s0,0,0,0h.1s0,0,0,0h.1s0,0,0,0h.1s0,0,0,0h.1s0,0,0,0h.1s0,0,0,0h.1s0,0,0,0h.1s0,0,0,0h.1s0,0,0,0h.1s0,0,0,0h.1s0,0,0,0h.1s0,0,0,0h.1s0,0,0,0h.1s0,0,0,0h.1s0,0,0,0h.1s0,0,0,0h.1s0,0,0,0h.1s0,0,0,0h.1s0,0,0,0h.1s0,0,0,0h.1s0,0,0,0h.1s0,0,0,0h.1s0,0,0,0h.1s0,0,0,0h.1s0,0,0,0h.1s0,0,0,0h.1s0,0,0,0h.1s0,0,0,0h.1s0,0,0,0h.1s0,0,0,0h.1s0,0,0,0h.1s0,0,0,0h.1s0,0,0,0h.1s0,0,0,0h.1s0,0,0,0h.1s0,0,0,0h.1s0,0,0,0h.1s0,0,0,0h.1s0,0,0,0h.1s0,0,0,0h.1s0,0,0,0h.1s0,0,0,0h.1s0,0,0,0h.1s0,0,0,0h.1s0,0,0,0h.1s0,0,0,0h.1s0,0,0,0h.1s0,0,0,0h.1s0,0,0,0h.1s0,0,0,0h.1s0,0,0,0h.1s0,0,0,0h.1s0,0,0,0h.1s0,0,0,0h.1s0,0,0,0h.1s0,0,0,0h.1s0,0,0,0h.1s0,0,0,0h.1s0,0,0,0h.1s0,0,0,0h.1s0,0,0,0h.1s0,0,0,0h.1s0,0,0,0h.1s0,0,0,0h.1s0,0,0,0h.1s0,0,0,0h.1s0,0,0,0h.1s0,0,0,0h.1s0,0,0,0h.1s0,0,0,0h.1s0,0,0,0h.1s0,0,0,0h.1s0,0,0,0h.1s0,0,0,0h.1s0,0,0,0h.1s0,0,0,0h.1s0,0,0,0h.1s0,0,0,0h.1s0,0,0,0h.1s0,0,0,0h.1s0,0,0,0h.1s0,0,0,0h.1s0,0,0,0h.1s0,0,0,0h.1s0,0,0,0h.1s0,0,0,0h.1s0,0,0,0h.1s0,0,0,0h.1s0,0,0,0h.1s0,0,0,0h.1s0,0,0,0h.1s0,0,0,0h.1s0,0,0,0h.1s0,0,0,0h.1s0,0,0,0h.1s0,0,0,0h.1s0,0,0,0h.1s0,0,0,0h.1s0,0,0,0h.1s0,0,0,0h.1s0,0,0,0h.1s0,0,0,0h.1s0,0,0,0h.1s0,0,0,0h.1s0,0,0,0h.1s0,0,0,0h.1s0,0,0,0h.1s0,0,0,0h.1s0,0,0,0h.1s0,0,0,0h.1s0,0,0,0h.1s0,0,0,0h.1s0,0,0,0h.1s0,0,0,0h.1s0,0,0,0h.1s0,0,0,0h.1s0,0,0,0h.1s0,0,0,0h.1s0,0,0,0h.1s0,0,0,0h.1s0,0,0,0h.1s0,0,0,0h.1s0,0,0,0h.1s0,0,0,0h.1s0,0,0,0h.1s0,0,0,0h.1s0,0,0,0h.1s0,0,0,0h.1s0,0,0,0h.1s0,0,0,0h.1s0,0,0,0h.1s0,0,0,0h.1s0,0,0,0h.1s0,0,0,0h.1s0,0,0,0h.1s0,0,0,0h.1s0,0,0,0h.1s0,0,0,0h.1s0,0,0,0h.1s0,0,0,0h.1s0,0,0,0h.1s0,0,0,0h.1s0,0,0,0h.1s0,0,0,0h.1s0,0,0,0h.1s0,0,0,0h.1s0,0,0,0h.1s0,0,0,0h.1s0,0,0,0h.1s0,0,0,0h.1s0,0,0,0h.1s0,0,0,0h.1s0,0,0,0h.1s0,0,0,0h.1s0,0,0,0h.1s0,0,0,0h.1s0,0,0,0h.1s0,0,0,0h.1s0,0,0,0h.1s0,0,0,0h.1s0,0,0,0h.1s0,0,0,0h.1s0,0,0,0h.1s0,0,0,0h.1s0,0,0,0h.1s0,0,0,0h.1s0,0,0,0h.1s0,0,0,0h.1s0,0,0,0h.1s0,0,0,0h.1s0,0,0,0h.1s0,0,0,0h.1s0,0,0,0h.1s0,0,0,0h.1s0,0,0,0h.1s0,0,0,0h.1s0,0,0,0h.1s0,0,0,0h.1s0,0,0,0h.1s0,0,0,0h.1s0,0,0,0h.1s0,0,0,0h.1s0,0,0,0h.1s0,0,0,0h.1s0,0,0,0h.1s0,0,0,0h.1s0,0,0,0h.1s0,0,0,0h.1s0,0,0,0h.1s0,0,0,0h.1s0,0,0,0h.1s0,0,0,0h.1s0,0,0,0h.1s0,0,0,0h.1s0,0,0,0h.1s0,0,0,0h.1s0,0,0,0h.1s0,0,0,0h.1s0,0,0,0h.1s0,0,0,0h.1s0,0,0,0h.1s0,0,0,0h.1s0,0,0,0h.1s0,0,0,0h.1s0,0,0,0h.1s0,0,0,0h.1s0,0,0,0h.1s0,0,0,0h.1s0,0,0,0h.1s0,0,0,0h.1s0,0,0,0h.1s0,0,0,0h.1s0,0,0,0h.1s0,0,0,0h.1s0,0,0,0h.1s0,0,0,0h.1s0,0,0,0h.1s0,0,0,0h.1s0,0,0,0h.1s0,0,0,0h.1s0,0,0,0h.1s0,0,0,0h.1s0,0,0,0h.1s0,0,0,0h.1s0,0,0,0h.1s0,0,0,0h.1s0,0,0,0h.1s0,0,0,0h.1s0,0,0,0h.1s0,0,0,0h.1s0,0,0,0h.1s0,0,0,0h.1s0,0,0,0h.1s0,0,0,0h.1s0,0,0,0h.1s0,0,0,0h.1s0,0,0,0h.1s0,0,0,0h.1s0,0,0,0h.1s0,0,0,0h.1s0,0,0,0h.1s0,0,0,0h.1s0,0,0,0h.1s0,0,0,0h.1s0,0,0,0h.1s0,0,0,0h.1s0,0,0,0h.1s0,0,0,0h.1s0,0,0,0h.1s0,0,0,0h.1s0,0,0,0h.1s0,0,0,0h.1s0,0,0,0h.1s0,0,0,0h.1s0,0,0,0h.1s0,0,0,0h.1s0,0,0,0h.1s0,0,0,0h.1s0,0,0,0h.1s0,0,0,0h.1s0,0,0,0h.1s0,0,0,0h.1s0,0,0,0h.1s0,0,0,0h.1s0,0,0,0h.1s0,0,0,0h.1s0,0,0,0h.1s0,0,0,0h.1s0,0,0,0h.1s0,0,0,0h.1s0,0,0,0h.1s0,0,0,0h.1s0,0,0,0h.1s0,0,0,0h.1s0,0,0,0h.1s0,0,0,0h.1s0,0,0,0h.1s0,0,0,0h.1s0,0,0,0h.1s0,0,0,0h.1s0,0,0,0h.1s0,0,0,0h.1s0,0,0,0h.1s0,0,0,0h.1s0,0,0,0h.1s0,0,0,0h.1s0,0,0,0h.1s0,0,0,0h.1s0,0,0,0h.1s0,0,0,0h.1s0,0,0,0h.1s0,0,0,0h.1s0,0,0,0h.1s0,0,0,0h.1s0,0,0,0h.1s0,0,0,0h.1s0,0,0,0h.1s0,0,0,0h.1s0,0,0,0h.1s0,0,0,0h.1s0,0,0,0h.1s0,0,0,0h.1s0,0,0,0h.1s0,0,0,0h.1s0,0,0,0h.1s0,0,0,0h.1s0,0,0,0h.1s0,0,0,0h.1s0,0,0,0h.1s0,0,0,0h.1s0,0,0,0h.1s0,0,0,0h.1s0,0,0,0h.1s0,0,0,0h.1s0,0,0,0h.1s0,0,0,0h.1s0,0,0,0h.1s0,0,0,0h.1s0,0,0,0h.1s0,0,0,0h.1s0,0,0,0h.1s0,0,0,0h.1s0,0,0,0h.1s0,0,0,0h.1s0,0,0,0h.1s0,0,0,0h.1s0,0,0,0h.1s0,0,0,0h.1s0,0,0,0h.1s0,0,0,0h.1s0,0,0,0h.1s0,0,0,0h.1s0,0,0,0h.1s0,0,0,0h.1s0,0,0,0h.1s0,0,0,0h.1s0,0,0,0h.1s0,0,0,0h.1s0,0,0,0h.1s0,0,0,0h.1s0,0,0,0h.1s0,0,0,0h.1s0,0,0,0h.1s0,0,0,0h.1s0,0,0,0h.1s0,0,0,0h.1s0,0,0,0h.1s0,0,0,0h.1s0,0,0,0h.1s0,0,0,0h.1s0,0,0,0h.1s0,0,0,0h.1s0,0,0,0h.1s0,0,0,0h.1s0,0,0,0h.1s0,0,0,0h.1s0,0,0,0h.1s0,0,0,0h.1s0,0,0,0h.1s0,0,0,0h.1s0,0,0,0h.1s0,0,0,0h.1s0,0,0,0h.1s0,0,0,0h.1s0,0,0,0h.1s0,0,0,0h.1s0,0,0,0h.1s0,0,0,0h.1s0,0,0,0h.1s0,0,0,0h.1s0,0,0,0h.1s0,0,0,0h.1s0,0,0,0h.1s0,0,0,0h.1s0,0,0,0h.1s0,0,0,0h.1s0,0,0,0h.1s0,0,0,0h.1s0,0,0,0h.1s0,0,0,0h.1s0,0,0,0h.1s0,0,0,0h.1s0,0,0,0h.1s0,0,0,0h.1s0,0,0,0h.1s0,0,0,0h.1s0,0,0,0h.1s0,0,0,0h.1s0,0,0,0h.1s0,0,0,0h.1s0,0,0,0h.1s0,0,0,0h.1s0,0,0,0h.1s0,0,0,0h.1s0,0,0,0h.1s0,0,0,0h.1s0,0,0,0h.1s0,0,0,0h.1s0,0,0,0h.1s0,0,0,0h.1s0,0,0,0h.1s0,0,0,0h.1s0,0,0,0h.1s0,0,0,0h.1s0,0,0,0h.1s0,0,0,0h.1s0,0,0,0h.1s0,0,0,0h.1s0,0,0,0h.1s0,0,0,0h.1s0,0,0,0h.1s0,0,0,0h.1s0,0,0,0h.1s0,0,0,0h.1s0,0,0,0h.1s0,0,0,0h.1s0,0,0,0h.1s0,0,0,0h.1s0,0,0,0h.1s0,0,0,0h.1s0,0,0,0h.1s0,0,0,0h.1s0,0,0,0h.1s0,0,0,0h.1s0,0,0,0h.1s0,0,0,0h.1s0,0,0,0h.1s0,0,0,0h.1s0,0,0,0h.1s0,0,0,0h.1s0,0,0,0h.1s0,0,0,0h.1s0,0,0,0h.1s0,0,0,0h.1s0,0,0,0h.1s0,0,0,0h.1s0,0,0,0h.1s0,0,0,0h.1s0,0,0,0h.1s0,0,0,0h.1s0,0,0,0h.1s0,0,0,0h.1s0,0,0,0h.1s0,0,0,0h.1s0,0,0,0h.1s0,0,0,0h.1s0,0,0,0h.1s0,0,0,0h.1s0,0,0,0h.1s0,0,0,0h.1s0,0,0,0h.1s0,0,0,0h.1s0,0,0,0h.1s0,0,0,0h.1s0,0,0,0h.1s0,0,0,0h.1s0,0,0,0h.1s0,0,0,0h.1s0,0,0,0h.1s0,0,0,0h.1s0,0,0,0h.1s0,0,0,0h.1s0,0,0,0h.1s0,0,0,0h.1s0,0,0,0h.1s0,0,0,0h.1s0,0,0,0h.1s0,0,0,0h.1s0,0,0,0h.1s0,0,0,0h.1s0,0,0,0h.1s0,0,0,0h.1s0,0,0,0h.1s0,0,0,0h.1s0,0,0,0h.1s0,0,0,0h.1s0,0,0,0h.1s0,0,0,0h.1s0,0,0,0h.1s0,0,0,0h.1s0,0,0,0h.1s0,0,0,0h.1s0,0,0,0h.1s0,0,0,0h.1s0,0,0,0h.1s0,0,0,0h.1s0,0,0,0h.1s0,0,0,0h.1s0,0,0,0h.1s0,0,0,0h.1s0,0,0,0h.1s0,0,0,0h.1s0,0,0,0h.1s0,0,0,0h.1s0,0,0,0h.1s0,0,0,0h.1s0,0,0,0h.1s0,0,0,0h.1s0,0,0,0h.1s0,0,0,0h.1s0,0,0,0h.1s0,0,0,0h.1s0,0,0,0h.1s0,0,0,0h.1s0,0,0,0h.1s0,0,0,0h.1s0,0,0,0h.1s0,0,0,0h.1s0,0,0,0h.1s0,0,0,0h.1s0,0,0,0h.1s0,0,0,0h.1s0,0,0,0h.1s0,0,0,0h.1s0,0,0,0h.1s0,0,0,0h.1s0,0,0,0h.1s0,0,0,0h.1s0,0,0,0h.1s0,0,0,0h.1s0,0,0,0h.1s0,0,0,0h.1s0,0,0,0h.1s0,0,0,0h.1s0,0,0,0h.1s0,0,0,0h.1s0,0,0,0h.1s0,0,0,0h.1s0,0,0,0h.1s0,0,0,0h.1s0,0,0,0h.1s0,0,0,0h.1s0,0,0,0h.1s0,0,0,0h.1s0,0,0,0h.1s0,0,0,0h.1s0,0,0,0h.1s0,0,0,0h.1s0,0,0,0h.1s0,0,0,0h.1s0,0,0,0h.1s0,0,0,0h.1s0,0,0,0h.1s0,0,0,0h.1s0,0,0,0h.1s0,0,0,0h.1s0,0,0,0h.1s0,0,0,0h.1s0,0,0,0h.1s0,0,0,0h.1s0,0,0,0h.1s0,0,0,0h.1s0,0,0,0h.1s0,0,0,0h.1s0,0,0,0h.1s0,0,0,0h.1s0,0,0,0h.1s0,0,0,0h.1s0,0,0,0h.1s0,0,0,0h.1s0,0,0,0h.1s0,0,0,0h.1s0,0,0,0h.1s0,0,0,0h.1s0,0,0,0h.1s0,0,0,0h.1s0,0,0,0h.1s0,0,0,0h.1s0,0,0,0h.1s0,0,0,0h.1s0,0,0,0h.1s0,0,0,0h.1s0,0,0,0h.1s0,0,0,0h.1s0,0,0,0h.1s0,0,0,0h.1s0,0,0,0h.1s0,0,0,0h.1s0,0,0,0h.1s0,0,0,0h.1s0,0,0,0h.1s0,0,0,0h.1s0,0,0,0h.1s0,0,0,0h.1s0,0,0,0h.1s0,0,0,0h.1s0,0,0,0h.1s0,0,0,0h.1s0,0,0,0h.1s0,0,0,0h.1s0,0,0,0h.1s0,0,0,0h.1s0,0,0,0h.1s0,0,0,0h.1s0,0,0,0h.1s0,0,0,0h.1s0,0,0,0h.1s0,0,0,0h.1s0,0,0,0h.1s0,0,0,0h.1s0,0,0,0h.1s0,0,0,0h.1s0,0,0,0h.1s0,0,0,0h.1s0,0,0,0h.1s0,0,0,0h.1s0,0,0,0h.1s0,0,0,0h.1s0,0,0,0h.1s0,0,0,0h.1s0,0,0,0h.1s0,0,0,0h.1s0,0,0,0h.1s0,0,0,0h.1s0,0,0,0h.1s0,0,0,0h.1s0,0,0,0h.1s0,0,0,0h.1s0,0,0,0h.1s0,0,0,0h.1s0,0,0,0h.1s0,0,0,0h.1s0,0,0,0h.1s0,0,0,0h.1s0,0,0,0h.1s0,0,0,0h.1s0,0,0,0h.1s0,0,0,0h.1s0,0,0,0h.1s0,0,0,0h.1s0,0,0,0h.1s0,0,0,0h.1s0,0,0,0h.1s0,0,0,0h.1s0,0,0,0h.2s0,0,0,0h.1s0,0,0,0h.1s0,0,0,0h.1s0,0,0,0h.1s0,0,0,0h.1s0,0,0,0h.1s0,0,0,0h.1s0,0,0,0h.1s0,0,0,0h.1s0,0,0,0h.1s0,0,0,0h.1s0,0,0,0h.1s0,0,0,0h.1s0,0,0,0h.1s0,0,0,0h.1s0,0,0,0h.1s0,0,0,0h.1s0,0,0,0h.1s0,0,0,0h.1s0,0,0,0h.1s0,0,0,0h.1s0,0,0,0h.2s0,0,0,0h.1s0,0,0,0h.1s0,0,0,0h.1s0,0,0,0h.1s0,0,0,0h.1s0,0,0,0h.1s0,0,0,0h.1s0,0,0,0h.1s0,0,0,0h.2s0,0,0,0h.1s0,0,0,0h.1s0,0,0,0h.1s0,0,0,0h.1s0,0,0,0h.1s0,0,0,0h.1s0,0,0,0h.2s0,0,0,0h.1s0,0,0,0h.1s0,0,0,0h.1s0,0,0,0h.1s0,0,0,0h.1s.1,0,.1,0h.1s0,0,0,0h.1s0,0,0,0h.1s0,0,0,0h.1s0,0,0,0h.2s0,0,0,0h.1s0,0,0,0h.1s0,0,0,0h.1s0,0,0,0h.2s0,0,0,0h.1s0,0,0,0h.1s0,0,0,0h.1s0,0,0,0h.2s0,0,0,0h.1s0,0,0,0h.1s0,0,0,0h.1s0,0,0,0h.2s0,0,0,0h.1s0,0,0,0h.1s0,0,0,0h.2s0,0,0,0h.1s0,0,0,0h.1s0,0,0,0h.2s0,0,0,0h.1s0,0,0,0h.1s0,0,0,0h.2s0,0,0,0h.1s0,0,0,0h.2s0,0,0,0h.1s0,0,0,0h.1s0,0,0,0h.2s0,0,0,0h.1s0,0,0,0h.2s0,0,0,0h.1s0,0,0,0h.1s0,0,0,0h.2s0,0,0,0h.1s0,0,0,0h.2s0,0,0,0h.1s0,0,0,0h.2s0,0,0,0h.1s0,0,0,0h.2s0,0,0,0h.1s0,0,0,0h.2s0,0,0,0h.1s0,0,0,0h.2s0,0,0,0h.1s0,0,0,0h.2s0,0,0,0h.1s0,0,0,0h.2s0,0,0,0h.1s0,0,0,0h.2s0,0,0,0h.2s0,0,0,0h.1s0,0,0,0h.2s0,0,0,0h.1s0,0,0,0h.2s0,0,0,0h.2s0,0,0,0h.1s0,0,0,0h.2s0,0,0,0h.2s0,0,0,0h.1s0,0,0,0h.2s0,0,0,0h.2s0,0,0,0h.1s0,0,0,0h.2s0,0,0,0h.2s0,0,0,0h.2s0,0,0,0h.1s0,0,0,0h.2s0,0,0,0h.2s0,0,0,0h.2s0,0,0,0h.2s0,0,0,0h.1s0,0,0,0h.2s0,0,0,0h.2s0,0,0,0h.2s0,0,0,0h.2s0,0,0,0h.2s0,0,0,0h.2s0,0,0,0h.1s.1,0,.1,0h.1s0,0,0,0h.2s0,0,0,0h.2s0,0,0,0h.2s0,0,0,0h.2s0,0,0,0h.2s0,0,0,0h.2s0,0,0,0h.2s0,0,0,0h.2s0,0,0,0h.2s0,0,0,0h.2s0,0,0,0h.4s0,0,0,0h.2s0,0,0,0h.2s0,0,0,0h.2s0,0,0,0h.2s0,0,0,0h.2s0,0,0,0h.4s0,0,0,0h.2s0,0,0,0h.2s0,0,0,0h.2s0,0,0,0h.4s0,0,0,0h.2s0,0,0,0h.2s0,0,0,0h.2s0,0,0,0h.4s0,0,0,0h.2s0,0,0,0h.4s0,0,0,0h.2s0,0,0,0h.3s.1,0,.1,0h.3s0,0,0,0h.4s0,0,0,0h.2s0,0,0,0h.2s0,0,0,0h.4s0,0,0,0h.4s0,0,0,0h.2s0,0,0,0h.4s0,0,0,0h.4s0,0,0,0h.2s0,0,0,0h.4s0,0,0,0h.4s0,0,0,0h.4s0,0,0,0h.2s0,0,0,0h.4s0,0,0,0h.4s0,0,0,0h.4s0,0,0,0h.4s0,0,0,0h.4s0,0,0,0h.4s0,0,0,0h.4s0,0,0,0h.4s0,0,0,0h.4s0,0,0,0h.4s.1,0,.1,0h.4s0,0,0,0h.4s0,0,0,0h.4s0,0,0,0h.4s0,0,0,0h.5s0,0,0,0h.4s0,0,0,0h.4s0,0,0,0h.5s0,0,0,0h.5s0,0,0,0h.4s0,0,0,0h.5s0,0,0,0h.4s0,0,0,0h.5s0,0,0,0h.5s0,0,0,0h.5s0,0,0,0h.4s0,0,0,0h.5s0,0,0,0h.5s0,0,0,0h.6s0,0,0,0h.5s0,0,0,0h.5s0,0,0,0h.5s0,0,0,0h.5s0,0,0,0h.6s0,0,0,0h.5s0,0,0,0h.5s0,0,0,0h.6s0,0,0,0h.6s0,0,0,0h.6s0,0,0,0h.6s0,0,0,0h.5s0,0,0,0h.6s0,0,0,0h.7s0,0,0,0h.6s0,0,0,0h.6s0,0,0,0h.6s0,0,0,0h.7s0,0,0,0h.7s0,0,0,0h.7s0,0,0,0h.7s0,0,0,0h.7s0,0,0,0h.7s0,0,0,0h.7s0,0,0,0h.9s0,0,0,0h.7s0,0,0,0h.9s0,0,0,0h.9s0,0,0,0h.9s0,0,0,0h1s0,0,0,0h1s0,0,0,0h.9s0,0,0,0h1s0,0,0,0h1.1s0,0,0,0h1s0,0,0,0h1.1s0,0,0,0h1.1s0,0,0,0h1.2s0,0,0,0h1.1s0,0,0,0h1.4s0,0,0,0h1.2s0,0,0,0h1.4s0,0,0,0h1.4s0,0,0,0h1.6s0,0,0,0h1.5s0,0,0,0h1.7s0,0,0,0h1.6s.1,0,.1,0h.6"/>
  <g>
    <circle class="cls-7" cx="234.3" cy="97" r="3"/>
    <circle class="cls-7" cx="234.7" cy="97.5" r="3"/>
    <circle class="cls-7" cx="235.4" cy="98.3" r="3"/>
    <circle class="cls-7" cx="242.7" cy="109.7" r="3"/>
    <circle class="cls-7" cx="242.9" cy="109.9" r="3"/>
    <circle class="cls-7" cx="243.2" cy="110.3" r="3"/>
    <circle class="cls-7" cx="243.8" cy="111.2" r="3"/>
    <circle class="cls-7" cx="253.7" cy="120.7" r="3"/>
    <circle class="cls-7" cx="256.8" cy="122.6" r="3"/>
    <circle class="cls-7" cx="257.3" cy="122.8" r="3"/>
    <circle class="cls-7" cx="258.3" cy="123.3" r="3"/>
    <circle class="cls-7" cx="259.7" cy="124" r="3"/>
    <circle class="cls-7" cx="259.8" cy="124" r="3"/>
    <circle class="cls-7" cx="264.3" cy="125.8" r="3"/>
    <circle class="cls-7" cx="268.5" cy="127.1" r="3"/>
    <circle class="cls-7" cx="269.5" cy="127.4" r="3"/>
    <circle class="cls-7" cx="270.4" cy="127.6" r="3"/>
    <circle class="cls-7" cx="278.1" cy="131.7" r="3"/>
    <circle class="cls-7" cx="279.3" cy="132.3" r="3"/>
    <circle class="cls-7" cx="285.9" cy="138.1" r="3"/>
    <circle class="cls-7" cx="286.5" cy="138.6" r="3"/>
    <circle class="cls-7" cx="295.8" cy="137.8" r="3"/>
    <circle class="cls-7" cx="299.3" cy="135.9" r="3"/>
  </g>
  <path class="cls-17" d="M161.5,248h247.5v-49h-247.5v49Z"/>
  <g>
    <line class="cls-30" x1="161.5" y1="248" x2="409" y2="248"/>
    <line class="cls-30" x1="161.5" y1="199" x2="409" y2="199"/>
    <line class="cls-30" x1="161.5" y1="248" x2="161.5" y2="199"/>
    <line class="cls-30" x1="409" y1="248" x2="409" y2="199"/>
    <line class="cls-30" x1="161.5" y1="243.8" x2="164" y2="243.8"/>
    <line class="cls-30" x1="161.5" y1="199" x2="164" y2="199"/>
    <line class="cls-30" x1="409" y1="243.8" x2="406.5" y2="243.8"/>
    <line class="cls-30" x1="409" y1="199" x2="406.5" y2="199"/>
  </g>
  <text class="cls-5" transform="translate(143.5 247.3)"><tspan x="0" y="0">0.5</tspan></text>
  <text class="cls-5" transform="translate(151.5 202.5)"><tspan x="0" y="0">1</tspan></text>
  <path class="cls-27" d="M166.9,206.6l10.8.5,10.8.8,10.8,11.3,10.8.2,10.8.4,10.8.9,10.8,9.5,10.8,1.8,10.8.3,10.8.5,10.8.6h10.8c0,0,10.8,1.8,10.8,1.8l10.8,1.3,10.8.3,10.8.2,10.8,4,10.8.7,10.8,5.7,10.8.5,10.8-.8,10.8-1.8"/>
  <g>
    <ellipse class="cls-7" cx="166.9" cy="206.6" rx="3.2" ry="3"/>
    <ellipse class="cls-7" cx="177.6" cy="207.1" rx="3.2" ry="3"/>
    <ellipse class="cls-7" cx="188.4" cy="207.9" rx="3.2" ry="3"/>
    <ellipse class="cls-7" cx="199.2" cy="219.2" rx="3.2" ry="3"/>
    <ellipse class="cls-7" cx="209.9" cy="219.4" rx="3.2" ry="3"/>
    <ellipse class="cls-7" cx="220.7" cy="219.9" rx="3.2" ry="3"/>
    <ellipse class="cls-7" cx="231.4" cy="220.7" rx="3.2" ry="3"/>
    <ellipse class="cls-7" cx="242.2" cy="230.2" rx="3.2" ry="3"/>
    <ellipse class="cls-7" cx="253" cy="232" rx="3.2" ry="3"/>
    <ellipse class="cls-7" cx="263.7" cy="232.3" rx="3.2" ry="3"/>
    <ellipse class="cls-7" cx="274.5" cy="232.8" rx="3.2" ry="3"/>
    <ellipse class="cls-7" cx="285.2" cy="233.4" rx="3.2" ry="3"/>
    <ellipse class="cls-7" cx="296" cy="233.5" rx="3.2" ry="3"/>
    <ellipse class="cls-7" cx="306.8" cy="235.3" rx="3.2" ry="3"/>
    <ellipse class="cls-7" cx="317.5" cy="236.6" rx="3.2" ry="3"/>
    <ellipse class="cls-7" cx="328.3" cy="236.8" rx="3.2" ry="3"/>
    <ellipse class="cls-7" cx="339.1" cy="237.1" rx="3.2" ry="3"/>
    <ellipse class="cls-7" cx="349.8" cy="241.1" rx="3.2" ry="3"/>
    <ellipse class="cls-7" cx="360.6" cy="241.8" rx="3.2" ry="3"/>
    <ellipse class="cls-7" cx="371.3" cy="247.5" rx="3.2" ry="3"/>
    <ellipse class="cls-7" cx="382.1" cy="248" rx="3.2" ry="3"/>
    <ellipse class="cls-7" cx="392.9" cy="247.2" rx="3.2" ry="3"/>
    <ellipse class="cls-7" cx="403.6" cy="245.3" rx="3.2" ry="3"/>
  </g>
  <path class="cls-17" d="M147,523v-255.5h-47v255.5h47Z"/>
  <g>
    <line class="cls-30" x1="100" y1="267.5" x2="100" y2="523"/>
    <line class="cls-30" x1="147" y1="267.5" x2="147" y2="523"/>
    <line class="cls-30" x1="100" y1="284.2" x2="102.6" y2="284.2"/>
    <line class="cls-30" x1="100" y1="306.4" x2="102.6" y2="306.4"/>
    <line class="cls-30" x1="100" y1="328.6" x2="102.6" y2="328.6"/>
    <line class="cls-30" x1="100" y1="350.8" x2="102.6" y2="350.8"/>
    <line class="cls-30" x1="100" y1="373" x2="102.6" y2="373"/>
    <line class="cls-30" x1="100" y1="395.3" x2="102.6" y2="395.3"/>
    <line class="cls-30" x1="100" y1="417.5" x2="102.6" y2="417.5"/>
    <line class="cls-30" x1="100" y1="439.7" x2="102.6" y2="439.7"/>
    <line class="cls-30" x1="100" y1="461.9" x2="102.6" y2="461.9"/>
    <line class="cls-30" x1="100" y1="484.1" x2="102.6" y2="484.1"/>
    <line class="cls-30" x1="100" y1="506.3" x2="102.6" y2="506.3"/>
    <line class="cls-30" x1="147" y1="284.2" x2="144.4" y2="284.2"/>
    <line class="cls-30" x1="147" y1="306.4" x2="144.4" y2="306.4"/>
    <line class="cls-30" x1="147" y1="328.6" x2="144.4" y2="328.6"/>
    <line class="cls-30" x1="147" y1="350.8" x2="144.4" y2="350.8"/>
    <line class="cls-30" x1="147" y1="373" x2="144.4" y2="373"/>
    <line class="cls-30" x1="147" y1="395.3" x2="144.4" y2="395.3"/>
    <line class="cls-30" x1="147" y1="417.5" x2="144.4" y2="417.5"/>
    <line class="cls-30" x1="147" y1="439.7" x2="144.4" y2="439.7"/>
    <line class="cls-30" x1="147" y1="461.9" x2="144.4" y2="461.9"/>
    <line class="cls-30" x1="147" y1="484.1" x2="144.4" y2="484.1"/>
    <line class="cls-30" x1="147" y1="506.3" x2="144.4" y2="506.3"/>
  </g>
  <text class="cls-5" transform="translate(90 287.7)"><tspan x="0" y="0">2</tspan></text>
  <text class="cls-5" transform="translate(90 309.9)"><tspan x="0" y="0">4</tspan></text>
  <text class="cls-5" transform="translate(90 332.1)"><tspan x="0" y="0">6</tspan></text>
  <text class="cls-5" transform="translate(90 354.3)"><tspan x="0" y="0">8</tspan></text>
  <text class="cls-5" transform="translate(84 376.5)"><tspan x="0" y="0">10</tspan></text>
  <text class="cls-5" transform="translate(84 398.8)"><tspan x="0" y="0">12</tspan></text>
  <text class="cls-5" transform="translate(84 421)"><tspan x="0" y="0">14</tspan></text>
  <text class="cls-5" transform="translate(84 443.2)"><tspan x="0" y="0">16</tspan></text>
  <text class="cls-5" transform="translate(84 465.4)"><tspan x="0" y="0">18</tspan></text>
  <text class="cls-5" transform="translate(84 487.6)"><tspan x="0" y="0">20</tspan></text>
  <text class="cls-5" transform="translate(84 509.8)"><tspan x="0" y="0">22</tspan></text>
  <g>
    <line class="cls-30" x1="147" y1="523" x2="100" y2="523"/>
    <line class="cls-30" x1="147" y1="267.5" x2="100" y2="267.5"/>
    <line class="cls-30" x1="143" y1="523" x2="143" y2="520.4"/>
    <line class="cls-30" x1="100" y1="523" x2="100" y2="520.4"/>
    <line class="cls-30" x1="143" y1="267.5" x2="143" y2="270.1"/>
    <line class="cls-30" x1="100" y1="267.5" x2="100" y2="270.1"/>
  </g>
  <text class="cls-5" transform="translate(136 537)"><tspan x="0" y="0">0.5</tspan></text>
  <text class="cls-5" transform="translate(97 537)"><tspan x="0" y="0">1</tspan></text>
  <path class="cls-27" d="M107.3,273.1l.4,11.1.8,11.1,10.9,11.1.2,11.1.4,11.1.9,11.1,9.1,11.1,1.8,11.1.2,11.1.5,11.1.6,11.1v11.1c0,0,1.7,11.1,1.7,11.1l1.3,11.1.3,11.1.2,11.1,3.9,11.1.6,11.1,5.5,11.1.5,11.1-.8,11.1-1.8,11.1"/>
  <g>
    <circle class="cls-7" cx="107.3" cy="273.1" r="3"/>
    <circle class="cls-7" cx="107.8" cy="284.2" r="3"/>
    <circle class="cls-7" cx="108.5" cy="295.3" r="3"/>
    <circle class="cls-7" cx="119.4" cy="306.4" r="3"/>
    <circle class="cls-7" cx="119.6" cy="317.5" r="3"/>
    <circle class="cls-7" cx="120" cy="328.6" r="3"/>
    <circle class="cls-7" cx="120.9" cy="339.7" r="3"/>
    <circle class="cls-7" cx="129.9" cy="350.8" r="3"/>
    <circle class="cls-7" cx="131.7" cy="361.9" r="3"/>
    <circle class="cls-7" cx="131.9" cy="373" r="3"/>
    <circle class="cls-7" cx="132.4" cy="384.1" r="3"/>
    <circle class="cls-7" cx="133" cy="395.3" r="3"/>
    <circle class="cls-7" cx="133.1" cy="406.4" r="3"/>
    <circle class="cls-7" cx="134.8" cy="417.5" r="3"/>
    <circle class="cls-7" cx="136" cy="428.6" r="3"/>
    <circle class="cls-7" cx="136.3" cy="439.7" r="3"/>
    <circle class="cls-7" cx="136.5" cy="450.8" r="3"/>
    <circle class="cls-7" cx="140.4" cy="461.9" r="3"/>
    <circle class="cls-7" cx="141" cy="473" r="3"/>
    <circle class="cls-7" cx="146.5" cy="484.1" r="3"/>
    <circle class="cls-7" cx="147" cy="495.2" r="3"/>
    <circle class="cls-7" cx="146.2" cy="506.3" r="3"/>
    <circle class="cls-7" cx="144.4" cy="517.4" r="3"/>
  </g>
  <path class="cls-17" d="M161.5,523h247.5v-255.5h-247.5v255.5Z"/>
  <g class="cls-33">
    <image class="cls-6" width="495" height="511" transform="translate(161.5 267.5) scale(.5)" xlink:href="fig-1.png"/>
  </g>
  <g>
    <path class="cls-29" d="M322.9,267.5h10.8v11.1h-10.8v-11.1Z"/>
    <path class="cls-29" d="M204.5,278.6h10.8v11.1h-10.8v-11.1Z"/>
    <path class="cls-29" d="M269.1,278.6h10.8v11.1h-10.8v-11.1Z"/>
    <path class="cls-29" d="M204.5,356.4h10.8v11.1h-10.8v-11.1Z"/>
    <path class="cls-29" d="M279.9,356.4h10.8v11.1h-10.8v-11.1Z"/>
    <path class="cls-29" d="M204.5,367.5h10.8v11.1h-10.8v-11.1Z"/>
    <path class="cls-29" d="M226.1,367.5h10.8v11.1h-10.8v-11.1Z"/>
    <path class="cls-29" d="M204.5,378.6h10.8v11.1h-10.8v-11.1Z"/>
  </g>
  <g>
    <line class="cls-30" x1="161.5" y1="523" x2="409" y2="523"/>
    <line class="cls-30" x1="161.5" y1="267.5" x2="409" y2="267.5"/>
    <line class="cls-30" x1="177.6" y1="523" x2="177.6" y2="520.4"/>
    <line class="cls-30" x1="199.2" y1="523" x2="199.2" y2="520.4"/>
    <line class="cls-30" x1="220.7" y1="523" x2="220.7" y2="520.4"/>
    <line class="cls-30" x1="242.2" y1="523" x2="242.2" y2="520.4"/>
    <line class="cls-30" x1="263.7" y1="523" x2="263.7" y2="520.4"/>
    <line class="cls-30" x1="285.2" y1="523" x2="285.2" y2="520.4"/>
    <line class="cls-30" x1="306.8" y1="523" x2="306.8" y2="520.4"/>
    <line class="cls-30" x1="328.3" y1="523" x2="328.3" y2="520.4"/>
    <line class="cls-30" x1="349.8" y1="523" x2="349.8" y2="520.4"/>
    <line class="cls-30" x1="371.3" y1="523" x2="371.3" y2="520.4"/>
    <line class="cls-30" x1="392.9" y1="523" x2="392.9" y2="520.4"/>
    <line class="cls-30" x1="177.6" y1="267.5" x2="177.6" y2="270.1"/>
    <line class="cls-30" x1="199.2" y1="267.5" x2="199.2" y2="270.1"/>
    <line class="cls-30" x1="220.7" y1="267.5" x2="220.7" y2="270.1"/>
    <line class="cls-30" x1="242.2" y1="267.5" x2="242.2" y2="270.1"/>
    <line class="cls-30" x1="263.7" y1="267.5" x2="263.7" y2="270.1"/>
    <line class="cls-30" x1="285.2" y1="267.5" x2="285.2" y2="270.1"/>
    <line class="cls-30" x1="306.8" y1="267.5" x2="306.8" y2="270.1"/>
    <line class="cls-30" x1="328.3" y1="267.5" x2="328.3" y2="270.1"/>
    <line class="cls-30" x1="349.8" y1="267.5" x2="349.8" y2="270.1"/>
    <line class="cls-30" x1="371.3" y1="267.5" x2="371.3" y2="270.1"/>
    <line class="cls-30" x1="392.9" y1="267.5" x2="392.9" y2="270.1"/>
  </g>
  <text class="cls-5" transform="translate(174.6 537)"><tspan x="0" y="0">2</tspan></text>
  <text class="cls-5" transform="translate(196.2 537)"><tspan x="0" y="0">4</tspan></text>
  <text class="cls-5" transform="translate(217.7 537)"><tspan x="0" y="0">6</tspan></text>
  <text class="cls-5" transform="translate(239.2 537)"><tspan x="0" y="0">8</tspan></text>
  <text class="cls-5" transform="translate(257.7 537)"><tspan x="0" y="0">10</tspan></text>
  <text class="cls-5" transform="translate(279.2 537)"><tspan x="0" y="0">12</tspan></text>
  <text class="cls-5" transform="translate(300.8 537)"><tspan x="0" y="0">14</tspan></text>
  <text class="cls-5" transform="translate(322.3 537)"><tspan x="0" y="0">16</tspan></text>
  <text class="cls-5" transform="translate(343.8 537)"><tspan x="0" y="0">18</tspan></text>
  <text class="cls-5" transform="translate(365.3 537)"><tspan x="0" y="0">20</tspan></text>
  <text class="cls-5" transform="translate(386.9 537)"><tspan x="0" y="0">22</tspan></text>
  <text class="cls-4" transform="translate(254 594.7)"><tspan x="0" y="0">Seizures</tspan></text>
  <g>
    <line class="cls-30" x1="161.5" y1="267.5" x2="161.5" y2="523"/>
    <line class="cls-30" x1="409" y1="267.5" x2="409" y2="523"/>
    <line class="cls-30" x1="419" y1="523" x2="434" y2="523"/>
    <line class="cls-30" x1="419" y1="267.5" x2="434" y2="267.5"/>
    <line class="cls-30" x1="419" y1="523" x2="419" y2="267.5"/>
    <line class="cls-30" x1="434" y1="523" x2="434" y2="267.5"/>
  </g>
  <g class="cls-34">
    <image class="cls-6" width="30" height="511" transform="translate(419 267.5) scale(.5)" xlink:href="fig-2.png"/>
  </g>
  <g>
    <line class="cls-30" x1="434" y1="523" x2="434" y2="267.5"/>
    <line class="cls-30" x1="434" y1="506.1" x2="431.4" y2="506.1"/>
    <line class="cls-30" x1="434" y1="478.4" x2="431.4" y2="478.4"/>
    <line class="cls-30" x1="434" y1="450.7" x2="431.4" y2="450.7"/>
    <line class="cls-30" x1="434" y1="423" x2="431.4" y2="423"/>
    <line class="cls-30" x1="434" y1="395.3" x2="431.4" y2="395.3"/>
    <line class="cls-30" x1="434" y1="367.5" x2="431.4" y2="367.5"/>
    <line class="cls-30" x1="434" y1="339.8" x2="431.4" y2="339.8"/>
    <line class="cls-30" x1="434" y1="312.1" x2="431.4" y2="312.1"/>
    <line class="cls-30" x1="434" y1="284.4" x2="431.4" y2="284.4"/>
  </g>
  <text class="cls-3" transform="translate(437.8 509.6)"><tspan x="0" y="0">-0.4</tspan></text>
  <text class="cls-3" transform="translate(437.8 481.9)"><tspan x="0" y="0">-0.3</tspan></text>
  <text class="cls-3" transform="translate(437.8 454.2)"><tspan x="0" y="0">-0.2</tspan></text>
  <text class="cls-3" transform="translate(437.8 426.5)"><tspan x="0" y="0">-0.1</tspan></text>
  <text class="cls-3" transform="translate(437.8 398.8)"><tspan x="0" y="0">0</tspan></text>
  <text class="cls-3" transform="translate(437.8 371)"><tspan x="0" y="0">0.1</tspan></text>
  <text class="cls-3" transform="translate(437.8 343.3)"><tspan x="0" y="0">0.2</tspan></text>
  <text class="cls-3" transform="translate(437.8 315.6)"><tspan x="0" y="0">0.3</tspan></text>
  <text class="cls-3" transform="translate(437.8 287.9)"><tspan x="0" y="0">0.4</tspan></text>
  <g>
    <line class="cls-30" x1="419" y1="267.5" x2="434" y2="267.5"/>
    <line class="cls-30" x1="419" y1="523" x2="434" y2="523"/>
    <line class="cls-30" x1="419" y1="523" x2="419" y2="267.5"/>
    <line class="cls-30" x1="434" y1="523" x2="434" y2="267.5"/>
    <line class="cls-22" x1="419" y1="523" x2="419" y2="523"/>
    <line class="cls-22" x1="419" y1="267.5" x2="419" y2="267.5"/>
    <line class="cls-22" x1="434" y1="523" x2="434" y2="523"/>
    <line class="cls-22" x1="434" y1="267.5" x2="434" y2="267.5"/>
  </g>
  <path class="cls-17" d="M529,523h46.5V199h-46.5v324Z"/>
  <g>
    <line class="cls-30" x1="529" y1="523" x2="575.5" y2="523"/>
    <line class="cls-30" x1="529" y1="523" x2="529" y2="519.8"/>
    <line class="cls-30" x1="552.2" y1="523" x2="552.2" y2="519.8"/>
    <line class="cls-30" x1="575.5" y1="523" x2="575.5" y2="519.8"/>
  </g>
  <text class="cls-5" transform="translate(522 537)"><tspan x="0" y="0">0.5</tspan></text>
  <text class="cls-5" transform="translate(549.2 537)"><tspan x="0" y="0">1</tspan></text>
  <text class="cls-5" transform="translate(568.5 537)"><tspan x="0" y="0">1.5</tspan></text>
  <g>
    <line class="cls-30" x1="529" y1="523" x2="529" y2="199"/>
    <line class="cls-30" x1="529" y1="523" x2="532.2" y2="523"/>
    <line class="cls-30" x1="529" y1="490.6" x2="532.2" y2="490.6"/>
    <line class="cls-30" x1="529" y1="458.2" x2="532.2" y2="458.2"/>
    <line class="cls-30" x1="529" y1="425.8" x2="532.2" y2="425.8"/>
    <line class="cls-30" x1="529" y1="393.4" x2="532.2" y2="393.4"/>
    <line class="cls-30" x1="529" y1="361" x2="532.2" y2="361"/>
    <line class="cls-30" x1="529" y1="328.6" x2="532.2" y2="328.6"/>
    <line class="cls-30" x1="529" y1="296.2" x2="532.2" y2="296.2"/>
    <line class="cls-30" x1="529" y1="263.8" x2="532.2" y2="263.8"/>
    <line class="cls-30" x1="529" y1="231.4" x2="532.2" y2="231.4"/>
    <line class="cls-30" x1="529" y1="199" x2="532.2" y2="199"/>
  </g>
  <text class="cls-5" transform="translate(515 526.5)"><tspan x="0" y="0">-1</tspan></text>
  <text class="cls-5" transform="translate(507 494.1)"><tspan x="0" y="0">-0.8</tspan></text>
  <text class="cls-5" transform="translate(507 461.7)"><tspan x="0" y="0">-0.6</tspan></text>
  <text class="cls-5" transform="translate(507 429.3)"><tspan x="0" y="0">-0.4</tspan></text>
  <text class="cls-5" transform="translate(507 396.9)"><tspan x="0" y="0">-0.2</tspan></text>
  <text class="cls-5" transform="translate(519 364.5)"><tspan x="0" y="0">0</tspan></text>
  <text class="cls-5" transform="translate(511 332.1)"><tspan x="0" y="0">0.2</tspan></text>
  <text class="cls-5" transform="translate(511 299.7)"><tspan x="0" y="0">0.4</tspan></text>
  <text class="cls-5" transform="translate(511 267.3)"><tspan x="0" y="0">0.6</tspan></text>
  <text class="cls-5" transform="translate(511 234.9)"><tspan x="0" y="0">0.8</tspan></text>
  <text class="cls-5" transform="translate(519 202.5)"><tspan x="0" y="0">1</tspan></text>
  <text class="cls-4" transform="translate(501 420.5) rotate(-90)"><tspan x="0" y="0">Difference in ASM loads</tspan></text>
  <path class="cls-8" d="M540.6,384h23.2v-57.4h-23.2v57.4Z"/>
  <g>
    <line class="cls-23" x1="552.2" y1="385.2" x2="552.2" y2="384"/>
    <line class="cls-23" x1="552.2" y1="326.6" x2="552.2" y2="306.5"/>
    <line class="cls-23" x1="546.4" y1="385.2" x2="558.1" y2="385.2"/>
    <line class="cls-23" x1="546.4" y1="306.5" x2="558.1" y2="306.5"/>
    <line class="cls-19" x1="540.6" y1="370.2" x2="563.9" y2="370.2"/>
    <path class="cls-26" d="M540.6,384h23.2v-57.4h-23.2v57.4"/>
  </g>
  <path class="cls-10" d="M549.2,303.5v6h6v-6h-6Z"/>
  <path class="cls-28" d="M549.2,303.5v6h6v-6h-6Z"/>
  <path class="cls-16" d="M549.2,335.7v6h6v-6h-6Z"/>
  <path class="cls-28" d="M549.2,335.7v6h6v-6h-6Z"/>
  <path class="cls-11" d="M549.2,311.6v6h6v-6h-6Z"/>
  <path class="cls-28" d="M549.2,311.6v6h6v-6h-6Z"/>
  <path class="cls-15" d="M549.2,380.8v6h6v-6h-6Z"/>
  <path class="cls-28" d="M549.2,380.8v6h6v-6h-6Z"/>
  <path class="cls-18" d="M549.2,357.1v4.3h6v-4.3h-6Z"/>
  <path class="cls-28" d="M549.2,355.5v4.3h4.3v-4.3h-4.3Z"/>
  <path class="cls-15" d="M549.2,381.2v6h6v-6h-6Z"/>
  <path class="cls-28" d="M549.2,381.2v6h6v-6h-6Z"/>
  <path class="cls-12" d="M549.2,378.9v6h6v-6h-6Z"/>
  <path class="cls-28" d="M549.2,378.9v6h6v-6h-6Z"/>
  <path class="cls-14" d="M549.2,382.2v6h6v-6h-6Z"/>
  <path class="cls-28" d="M549.2,382.2v6h6v-6h-6Z"/>
  <path class="cls-17" d="M89.8,772.2h475.5v-187H89.8v187Z"/>
  <g>
    <g class="cls-35">
      <path class="cls-13" d="M284.3,772.2v-46.8h-21.6v46.8h21.6ZM327.5,772.2v-163.6h-21.6v163.6h21.6ZM349.1,772.2v-93.5h-21.6v93.5h21.6ZM392.3,772.2v-23.4h-21.6v23.4h21.6Z"/>
    </g>
    <path class="cls-8" d="M284.3,772.2v-46.8h-21.6v46.8h21.6ZM327.5,772.2v-163.6h-21.6v163.6h21.6ZM349.1,772.2v-93.5h-21.6v93.5h21.6ZM392.3,772.2v-23.4h-21.6v23.4h21.6Z"/>
  </g>
  <g>
    <path class="cls-31" d="M111.4,772.2h21.6"/>
    <path class="cls-31" d="M133,772.2h21.6"/>
    <path class="cls-31" d="M154.6,772.2h21.6"/>
    <path class="cls-31" d="M176.2,772.2h21.6"/>
    <path class="cls-31" d="M197.8,772.2h21.6"/>
    <path class="cls-31" d="M219.4,772.2h21.6"/>
    <line class="cls-31" x1="241" y1="772.2" x2="262.7" y2="772.2"/>
    <path class="cls-31" d="M262.7,772.2h0v-46.8h21.6v46.8h0"/>
    <line class="cls-31" x1="284.3" y1="772.2" x2="305.9" y2="772.2"/>
    <path class="cls-31" d="M305.9,772.2h0v-163.6h21.6v163.6h0"/>
    <path class="cls-31" d="M327.5,678.7h21.6v93.5h0"/>
    <line class="cls-31" x1="349.1" y1="772.2" x2="370.7" y2="772.2"/>
    <path class="cls-31" d="M370.7,772.2h0v-23.4h21.6v23.4h0"/>
    <path class="cls-31" d="M392.3,772.2h21.6"/>
    <path class="cls-31" d="M414,772.2h21.6"/>
    <path class="cls-31" d="M435.6,772.2h21.6"/>
    <path class="cls-31" d="M457.2,772.2h21.6"/>
    <path class="cls-31" d="M478.8,772.2h21.6"/>
    <path class="cls-31" d="M500.4,772.2h21.6"/>
    <path class="cls-31" d="M522,772.2h21.6"/>
  </g>
  <text class="cls-2" transform="translate(327.5 600.4)"><tspan x="0" y="0">P=0.60 T=0.54</tspan></text>
  <g>
    <line class="cls-30" x1="89.8" y1="772.2" x2="565.2" y2="772.2"/>
    <line class="cls-30" x1="89.8" y1="585.2" x2="565.2" y2="585.2"/>
    <line class="cls-30" x1="111.4" y1="772.2" x2="111.4" y2="767.5"/>
    <line class="cls-30" x1="154.6" y1="772.2" x2="154.6" y2="767.5"/>
    <line class="cls-30" x1="197.8" y1="772.2" x2="197.8" y2="767.5"/>
    <line class="cls-30" x1="241" y1="772.2" x2="241" y2="767.5"/>
    <line class="cls-30" x1="284.3" y1="772.2" x2="284.3" y2="767.5"/>
    <line class="cls-30" x1="327.5" y1="772.2" x2="327.5" y2="767.5"/>
    <line class="cls-30" x1="370.7" y1="772.2" x2="370.7" y2="767.5"/>
    <line class="cls-30" x1="414" y1="772.2" x2="414" y2="767.5"/>
    <line class="cls-30" x1="457.2" y1="772.2" x2="457.2" y2="767.5"/>
    <line class="cls-30" x1="500.4" y1="772.2" x2="500.4" y2="767.5"/>
    <line class="cls-30" x1="543.6" y1="772.2" x2="543.6" y2="767.5"/>
    <line class="cls-30" x1="111.4" y1="585.2" x2="111.4" y2="590"/>
    <line class="cls-30" x1="154.6" y1="585.2" x2="154.6" y2="590"/>
    <line class="cls-30" x1="197.8" y1="585.2" x2="197.8" y2="590"/>
    <line class="cls-30" x1="241" y1="585.2" x2="241" y2="590"/>
    <line class="cls-30" x1="284.3" y1="585.2" x2="284.3" y2="590"/>
    <line class="cls-30" x1="327.5" y1="585.2" x2="327.5" y2="590"/>
    <line class="cls-30" x1="370.7" y1="585.2" x2="370.7" y2="590"/>
    <line class="cls-30" x1="414" y1="585.2" x2="414" y2="590"/>
    <line class="cls-30" x1="457.2" y1="585.2" x2="457.2" y2="590"/>
    <line class="cls-30" x1="500.4" y1="585.2" x2="500.4" y2="590"/>
    <line class="cls-30" x1="543.6" y1="585.2" x2="543.6" y2="590"/>
  </g>
  <text class="cls-5" transform="translate(106.4 786.2)"><tspan x="0" y="0">-1</tspan></text>
  <text class="cls-5" transform="translate(145.6 786.2)"><tspan x="0" y="0">-0.8</tspan></text>
  <text class="cls-5" transform="translate(188.8 786.2)"><tspan x="0" y="0">-0.6</tspan></text>
  <text class="cls-5" transform="translate(232 786.2)"><tspan x="0" y="0">-0.4</tspan></text>
  <text class="cls-5" transform="translate(275.3 786.2)"><tspan x="0" y="0">-0.2</tspan></text>
  <text class="cls-5" transform="translate(324.5 786.2)"><tspan x="0" y="0">0</tspan></text>
  <text class="cls-5" transform="translate(363.7 786.2)"><tspan x="0" y="0">0.2</tspan></text>
  <text class="cls-5" transform="translate(407 786.2)"><tspan x="0" y="0">0.4</tspan></text>
  <text class="cls-5" transform="translate(450.2 786.2)"><tspan x="0" y="0">0.6</tspan></text>
  <text class="cls-5" transform="translate(493.4 786.2)"><tspan x="0" y="0">0.8</tspan></text>
  <text class="cls-5" transform="translate(540.6 786.2)"><tspan x="0" y="0">1</tspan></text>
  <text class="cls-4" transform="translate(262 800.7)"><tspan x="0" y="0">medication load difference</tspan></text>
  <g>
    <line class="cls-30" x1="89.8" y1="772.2" x2="89.8" y2="585.2"/>
    <line class="cls-30" x1="565.2" y1="772.2" x2="565.2" y2="585.2"/>
    <line class="cls-30" x1="89.8" y1="772.2" x2="94.5" y2="772.2"/>
    <line class="cls-30" x1="89.8" y1="748.9" x2="94.5" y2="748.9"/>
    <line class="cls-30" x1="89.8" y1="725.5" x2="94.5" y2="725.5"/>
    <line class="cls-30" x1="89.8" y1="702.1" x2="94.5" y2="702.1"/>
    <line class="cls-30" x1="89.8" y1="678.7" x2="94.5" y2="678.7"/>
    <line class="cls-30" x1="89.8" y1="655.4" x2="94.5" y2="655.4"/>
    <line class="cls-30" x1="89.8" y1="632" x2="94.5" y2="632"/>
    <line class="cls-30" x1="89.8" y1="608.6" x2="94.5" y2="608.6"/>
    <line class="cls-30" x1="89.8" y1="585.2" x2="94.5" y2="585.2"/>
    <line class="cls-30" x1="565.2" y1="772.2" x2="560.5" y2="772.2"/>
    <line class="cls-30" x1="565.2" y1="748.9" x2="560.5" y2="748.9"/>
    <line class="cls-30" x1="565.2" y1="725.5" x2="560.5" y2="725.5"/>
    <line class="cls-30" x1="565.2" y1="702.1" x2="560.5" y2="702.1"/>
    <line class="cls-30" x1="565.2" y1="678.7" x2="560.5" y2="678.7"/>
    <line class="cls-30" x1="565.2" y1="655.4" x2="560.5" y2="655.4"/>
    <line class="cls-30" x1="565.2" y1="632" x2="560.5" y2="632"/>
    <line class="cls-30" x1="565.2" y1="608.6" x2="560.5" y2="608.6"/>
    <line class="cls-30" x1="565.2" y1="585.2" x2="560.5" y2="585.2"/>
  </g>
  <text class="cls-5" transform="translate(79.8 775.7)"><tspan x="0" y="0">0</tspan></text>
  <text class="cls-5" transform="translate(79.8 752.4)"><tspan x="0" y="0">1</tspan></text>
  <text class="cls-5" transform="translate(79.8 729)"><tspan x="0" y="0">2</tspan></text>
  <text class="cls-5" transform="translate(79.8 705.6)"><tspan x="0" y="0">3</tspan></text>
  <text class="cls-5" transform="translate(79.8 682.2)"><tspan x="0" y="0">4</tspan></text>
  <text class="cls-5" transform="translate(79.8 658.9)"><tspan x="0" y="0">5</tspan></text>
  <text class="cls-5" transform="translate(79.8 635.5)"><tspan x="0" y="0">6</tspan></text>
  <text class="cls-5" transform="translate(79.8 612.1)"><tspan x="0" y="0">7</tspan></text>
  <text class="cls-5" transform="translate(79.8 588.7)"><tspan x="0" y="0">8</tspan></text>
  <text class="cls-4" transform="translate(73.8 711.7) rotate(-90)"><tspan x="0" y="0">Patient count</tspan></text>
  <line class="cls-25" x1="336.3" y1="772.2" x2="336.3" y2="585.2"/>
  <g>
    <polyline class="cls-26" points="307.7 135.1 307.7 141.1 301.7 141.1"/>
    <line class="cls-32" x1="288.8" y1="141.1" x2="243.8" y2="141.1"/>
    <polyline class="cls-26" points="237.3 141.1 231.3 141.1 231.3 135.1"/>
    <line class="cls-21" x1="231.3" y1="124.4" x2="231.3" y2="108.4"/>
    <polyline class="cls-26" points="231.3 103 231.3 97 237.3 97"/>
    <line class="cls-32" x1="250.2" y1="97" x2="295.2" y2="97"/>
    <polyline class="cls-26" points="301.7 97 307.7 97 307.7 103"/>
    <line class="cls-21" x1="307.7" y1="113.7" x2="307.7" y2="129.7"/>
  </g>
  <rect class="cls-26" x="53" y="566.3" width="544.7" height="244.7"/>
  <rect class="cls-17" x="63.1" y="559.4" width="107.3" height="13.9"/>
  <text class="cls-1" transform="translate(63.1 570.7) scale(1 1)"><tspan x="0" y="0">Across subjects</tspan></text>
</svg>
